<svg width="70" height="70" viewBox="0 0 70 70" fill="none" xmlns="http://www.w3.org/2000/svg">
<path d="M70 35C70 15.67 54.33 0 35 0V0C15.67 0 0 15.67 0 35V35C0 54.33 15.67 70 35 70V70C54.33 70 70 54.33 70 35V35Z" fill="#7236D6"/>
<path fill-rule="evenodd" clip-rule="evenodd" d="M34.9465 17.9199C25.3135 17.9199 17.5 25.7334 17.5 35.3664C17.5 43.0728 22.5306 49.6019 29.3807 51.9566C30.237 52.0637 30.5581 51.5285 30.5581 51.1004C30.5581 50.6722 30.5581 49.6019 30.5581 48.1034C25.7416 49.1737 24.6713 45.7487 24.6713 45.7487C23.922 43.715 22.7446 43.1799 22.7446 43.1799C21.1391 42.1095 22.8517 42.1095 22.8517 42.1095C24.5642 42.2166 25.5275 43.9291 25.5275 43.9291C27.133 46.6049 29.5948 45.8557 30.5581 45.4276C30.6651 44.2502 31.2003 43.501 31.6284 43.0728C27.7752 42.6447 23.708 41.1462 23.708 34.4031C23.708 32.4765 24.3502 30.978 25.5275 29.6936C25.4205 29.3725 24.7783 27.553 25.7416 25.1982C25.7416 25.1982 27.2401 24.7701 30.5581 27.0178C31.9495 26.5896 33.448 26.4826 34.9465 26.4826C36.445 26.4826 37.9434 26.6967 39.3349 27.0178C42.6529 24.7701 44.1514 25.1982 44.1514 25.1982C45.1147 27.553 44.4725 29.3725 44.3654 29.8007C45.4358 30.978 46.185 32.5835 46.185 34.5101C46.185 41.2533 42.1177 42.6447 38.2645 43.0728C38.9067 43.608 39.4419 44.6783 39.4419 46.2838C39.4419 48.6386 39.4419 50.4582 39.4419 51.1004C39.4419 51.5285 39.763 52.0637 40.6193 51.9566C47.5765 49.6019 52.5 43.0728 52.5 35.3664C52.393 25.7334 44.5795 17.9199 34.9465 17.9199Z" fill="white"/>
</svg>
