<svg width="70" height="70" viewBox="0 0 70 70" fill="none" xmlns="http://www.w3.org/2000/svg">
<rect width="70" height="70" rx="35" fill="#7236D6"/>
<path d="M11.3652 30.6699H58.6333V33.5565C58.6333 46.6092 48.052 57.1905 34.9993 57.1905C21.9465 57.1905 11.3652 46.6092 11.3652 33.5565V30.6699Z" fill="#C19BFF"/>
<path d="M37.5919 17.9439C35.9664 17.1002 34.0321 17.1002 32.4066 17.9439L12.9887 28.0234C11.9913 28.5412 11.3652 29.5715 11.3652 30.6954C11.3652 31.8866 12.0677 32.9658 13.1569 33.4481L32.8877 42.1839C34.2324 42.7793 35.7661 42.7793 37.1108 42.1839L56.8416 33.4481C57.9308 32.9658 58.6333 31.8866 58.6333 30.6954C58.6333 29.5715 58.0073 28.5412 57.0098 28.0234L37.5919 17.9439Z" fill="#A067FF"/>
<path opacity="0.8" d="M21.4686 12.6289C19.8744 12.6289 18.582 13.9213 18.582 15.5155V35.8498L32.888 42.1837C34.2327 42.7791 35.7664 42.7791 37.1111 42.1837L51.4171 35.8498V15.5155C51.4171 13.9213 50.1247 12.6289 48.5305 12.6289H21.4686Z" fill="white"/>
<rect x="22.9121" y="17.5" width="11.5464" height="3.24742" rx="1.62371" fill="#935BED"/>
<path opacity="0.9" d="M22.9121 25.258C22.9121 24.3612 23.6391 23.6343 24.5358 23.6343H45.4637C46.3604 23.6343 47.0874 24.3612 47.0874 25.258C47.0874 26.1547 46.3604 26.8817 45.4637 26.8817H24.5358C23.6391 26.8817 22.9121 26.1547 22.9121 25.258Z" fill="#935BED"/>
<path opacity="0.8" d="M22.9121 31.3918C22.9121 30.495 23.6391 29.7681 24.5358 29.7681H40.5925C41.4893 29.7681 42.2162 30.495 42.2162 31.3918C42.2162 32.2885 41.4893 33.0155 40.5925 33.0155H24.5358C23.6391 33.0155 22.9121 32.2885 22.9121 31.3918Z" fill="#935BED"/>
<path opacity="0.6" d="M26.0351 39.1493H36.2626C36.6612 39.1493 36.9843 38.8262 36.9843 38.4276V36.6235C36.9843 36.2249 36.6612 35.9019 36.2626 35.9019H23.6338C23.2352 35.9019 22.9121 36.2249 22.9121 36.6235V37.7666L26.0351 39.1493Z" fill="#935BED"/>
</svg>
