<svg width="1920" height="635" viewBox="0 0 1920 635" fill="none" xmlns="http://www.w3.org/2000/svg">
<path fill-rule="evenodd" clip-rule="evenodd" d="M-225 0H2145V5H2135.98V31H2145V605H2135.98V631H2145V635H-225V0ZM-213.492 31H-223.082L-223.082 5H-213.492L-213.492 31ZM-203.902 31H-194.313L-194.313 5H-203.902L-203.902 31ZM-175.134 31H-184.724V5H-175.134L-175.134 31ZM-165.544 31H-155.954V5H-165.544V31ZM-136.775 31H-146.365V5H-136.775V31ZM-127.185 31H-117.595V5H-127.185V31ZM-98.4165 31H-108.006V5H-98.4165V31ZM-88.8266 31H-79.2369V5H-88.8266L-88.8266 31ZM-60.0573 31H-69.647L-69.6469 5H-60.0573V31ZM-50.4673 31H-40.8776V5H-50.4673L-50.4673 31ZM-21.6989 31H-31.2887L-31.2886 5H-21.6989V31ZM-12.109 31H-2.51932V5H-12.109L-12.109 31ZM16.6603 31H7.07062L7.07063 5H16.6603V31ZM26.2502 31H35.8399V5H26.2502L26.2502 31ZM55.0196 31H45.4299V5H55.0196V31ZM64.6086 31H74.1983V5H64.6086V31ZM93.3779 31H83.7882V5H93.3779V31ZM102.968 31H112.558V5H102.968V31ZM131.737 31H122.147V5H131.737V31ZM141.326 31H150.916V5H141.326V31ZM170.095 31H160.506V5H170.095V31ZM179.685 31H189.275V5H179.685V31ZM208.455 31H198.865V5H208.455V31ZM218.044 31H227.633V5H218.044V31ZM246.813 31H237.223V5H246.813V31ZM256.403 31H265.993V5H256.403V31ZM285.172 31H275.583V5H285.172V31ZM294.761 31H304.351V5H294.761V31ZM323.531 31H313.941V5H323.531V31ZM333.121 31H342.71V5H333.121V31ZM361.89 31H352.3V5H361.89V31ZM371.48 31H381.07V5H371.48V31ZM400.248 31H390.659V5H400.248V31ZM409.838 31H419.428V5H409.838V31ZM438.607 31H429.018V5H438.607V31ZM448.196 31H457.786V5H448.196V31ZM476.966 31H467.376V5H476.966V31ZM486.556 31H496.145V5H486.556V31ZM515.325 31H505.735V5H515.325V31ZM524.915 31H534.505V5H524.915V31ZM553.683 31H544.094V5H553.683V31ZM563.273 31H572.863V5H563.273V31ZM592.043 31H582.453V5H592.043V31ZM601.633 31H611.222V5H601.633V31ZM630.401 31H620.811V5H630.401V31ZM639.991 31H649.581V5H639.991V31ZM668.76 31H659.17V5H668.76V31ZM678.35 31H687.94V5H678.35V31ZM707.118 31H697.529V5H707.118V31ZM716.708 31H726.298V5H716.708V31ZM745.478 31H735.888V5H745.478V31ZM755.068 31H764.657V5H755.068V31ZM783.836 31H774.246V5H783.836V31ZM793.426 31H803.016V5H793.426V31ZM822.195 31H812.606V5H822.195V31ZM831.784 31H841.374V5H831.784V31ZM860.554 31H850.964V5H860.554V31ZM870.143 31H879.733V5H870.143V31ZM898.913 31H889.323V5H898.913V31ZM908.502 31H918.092V5H908.502V31ZM937.271 31H927.681V5H937.271V31ZM946.861 31H956.451V5H946.861V31ZM975.63 31H966.041V5H975.63V31ZM985.219 31H994.809V5H985.219V31ZM1013.99 31H1004.4V5H1013.99V31ZM1023.58 31H1033.17V5H1023.58V31ZM1052.35 31H1042.76V5H1052.35V31ZM1061.94 31H1071.53V5H1061.94V31ZM1090.71 31H1081.12V5H1090.71V31ZM1100.3 31H1109.89V5H1100.3V31ZM1129.07 31H1119.48V5H1129.07V31ZM1138.66 31H1148.25V5H1138.66V31ZM1167.42 31H1157.83V5H1167.42V31ZM1177.01 31H1186.6V5H1177.01V31ZM1205.78 31H1196.19V5H1205.78V31ZM1215.37 31H1224.96V5H1215.37V31ZM1244.14 31H1234.55V5H1244.14V31ZM1253.73 31H1263.32V5H1253.73V31ZM1282.5 31H1272.91V5H1282.5V31ZM1292.09 31H1301.68V5H1292.09V31ZM1320.86 31H1311.27V5H1320.86V31ZM1330.45 31H1340.04V5H1330.45V31ZM1359.22 31H1349.63V5H1359.22V31ZM1368.81 31H1378.4V5H1368.81V31ZM1397.58 31H1387.99V5H1397.58V31ZM1407.17 31H1416.76V5H1407.17V31ZM1435.94 31H1426.35V5H1435.94V31ZM1445.53 31H1455.12V5H1445.53V31ZM1474.29 31H1464.7V5H1474.29V31ZM1483.88 31H1493.47V5H1483.88V31ZM1512.65 31H1503.06V5H1512.65V31ZM1522.24 31H1531.83V5H1522.24V31ZM1551.01 31H1541.42V5H1551.01V31ZM1560.6 31H1570.19V5H1560.6V31ZM1589.37 31H1579.78V5H1589.37V31ZM1598.96 31H1608.55V5H1598.96V31ZM1627.73 31H1618.14V5H1627.73V31ZM1637.32 31H1646.91V5H1637.32V31ZM1666.09 31H1656.5V5H1666.09V31ZM1675.68 31H1685.27V5H1675.68V31ZM1704.45 31H1694.86V5H1704.45V31ZM1714.04 31H1723.63V5H1714.04V31ZM1742.81 31H1733.22V5H1742.81V31ZM1752.4 31H1761.99V5H1752.4V31ZM1781.17 31H1771.58V5H1781.17V31ZM1790.75 31H1800.34V5H1790.75V31ZM1819.52 31H1809.93V5H1819.52V31ZM1829.11 31H1838.7V5H1829.11V31ZM1857.88 31H1848.29V5H1857.88V31ZM1867.47 31H1877.06V5H1867.47V31ZM1896.24 31H1886.65V5H1896.24V31ZM1905.83 31H1915.42V5H1905.83V31ZM1934.6 31H1925.01V5H1934.6V31ZM1944.19 31H1953.78V5H1944.19V31ZM1972.96 31H1963.37V5H1972.96V31ZM1982.55 31H1992.14V5H1982.55V31ZM2011.32 31H2001.73V5H2011.32V31ZM2020.91 31H2030.5V5H2020.91V31ZM2049.68 31H2040.09V5H2049.68V31ZM2059.27 31H2068.86V5H2059.27V31ZM2088.04 31H2078.45V5H2088.04V31ZM2097.63 31H2107.22V5H2097.63V31ZM2116.8 31H2126.39V5H2116.8V31ZM-223.082 631H-213.492L-213.492 605H-223.082L-223.082 631ZM-194.313 631H-203.902L-203.902 605H-194.313L-194.313 631ZM-184.724 631H-175.134L-175.134 605H-184.724V631ZM-155.954 631H-165.544V605H-155.954V631ZM-146.365 631H-136.775V605H-146.365V631ZM-117.595 631H-127.185V605H-117.595V631ZM-108.006 631H-98.4165V605H-108.006V631ZM-79.2369 631H-88.8266L-88.8266 605H-79.2369V631ZM-69.647 631H-60.0573V605H-69.6469L-69.647 631ZM-40.8776 631H-50.4673L-50.4673 605H-40.8776V631ZM-31.2887 631H-21.6989V605H-31.2886L-31.2887 631ZM-2.51932 631H-12.109L-12.109 605H-2.51932V631ZM7.07062 631H16.6603V605H7.07063L7.07062 631ZM35.8399 631H26.2502L26.2502 605H35.8399V631ZM45.4299 631H55.0196V605H45.4299V631ZM74.1983 631H64.6086V605H74.1983V631ZM83.7882 631H93.3779V605H83.7882V631ZM112.558 631H102.968V605H112.558V631ZM122.147 631H131.737V605H122.147V631ZM150.916 631H141.326V605H150.916V631ZM160.506 631H170.095V605H160.506V631ZM189.275 631H179.685V605H189.275V631ZM198.865 631H208.455V605H198.865V631ZM227.633 631H218.044V605H227.633V631ZM237.223 631H246.813V605H237.223V631ZM265.993 631H256.403V605H265.993V631ZM275.583 631H285.172V605H275.583V631ZM304.351 631H294.761V605H304.351V631ZM313.941 631H323.531V605H313.941V631ZM342.71 631H333.121V605H342.71V631ZM352.3 631H361.89V605H352.3V631ZM381.07 631H371.48V605H381.07V631ZM390.659 631H400.248V605H390.659V631ZM419.428 631H409.838V605H419.428V631ZM429.018 631H438.607V605H429.018V631ZM457.786 631H448.196V605H457.786V631ZM467.376 631H476.966V605H467.376V631ZM496.145 631H486.556V605H496.145V631ZM505.735 631H515.325V605H505.735V631ZM534.505 631H524.915V605H534.505V631ZM544.094 631H553.683V605H544.094V631ZM572.863 631H563.273V605H572.863V631ZM582.453 631H592.043V605H582.453V631ZM611.222 631H601.633V605H611.222V631ZM620.811 631H630.401V605H620.811V631ZM649.581 631H639.991V605H649.581V631ZM659.17 631H668.76V605H659.17V631ZM687.94 631H678.35V605H687.94V631ZM697.529 631H707.118V605H697.529V631ZM726.298 631H716.708V605H726.298V631ZM735.888 631H745.478V605H735.888V631ZM764.657 631H755.068V605H764.657V631ZM774.246 631H783.836V605H774.246V631ZM803.016 631H793.426V605H803.016V631ZM812.606 631H822.195V605H812.606V631ZM841.374 631H831.784V605H841.374V631ZM850.964 631H860.554V605H850.964V631ZM879.733 631H870.143V605H879.733V631ZM889.323 631H898.913V605H889.323V631ZM918.092 631H908.502V605H918.092V631ZM927.681 631H937.271V605H927.681V631ZM956.451 631H946.861V605H956.451V631ZM966.041 631H975.63V605H966.041V631ZM994.809 631H985.219V605H994.809V631ZM1004.4 631H1013.99V605H1004.4V631ZM1033.17 631H1023.58V605H1033.17V631ZM1042.76 631H1052.35V605H1042.76V631ZM1071.53 631H1061.94V605H1071.53V631ZM1081.12 631H1090.71V605H1081.12V631ZM1109.89 631H1100.3V605H1109.89V631ZM1119.48 631H1129.07V605H1119.48V631ZM1148.25 631H1138.66V605H1148.25V631ZM1157.83 631H1167.42V605H1157.83V631ZM1186.6 631H1177.01V605H1186.6V631ZM1196.19 631H1205.78V605H1196.19V631ZM1224.96 631H1215.37V605H1224.96V631ZM1234.55 631H1244.14V605H1234.55V631ZM1263.32 631H1253.73V605H1263.32V631ZM1272.91 631H1282.5V605H1272.91V631ZM1301.68 631H1292.09V605H1301.68V631ZM1311.27 631H1320.86V605H1311.27V631ZM1340.04 631H1330.45V605H1340.04V631ZM1349.63 631H1359.22V605H1349.63V631ZM1378.4 631H1368.81V605H1378.4V631ZM1387.99 631H1397.58V605H1387.99V631ZM1416.76 631H1407.17V605H1416.76V631ZM1426.35 631H1435.94V605H1426.35V631ZM1455.12 631H1445.53V605H1455.12V631ZM1464.7 631H1474.29V605H1464.7V631ZM1493.47 631H1483.88V605H1493.47V631ZM1503.06 631H1512.65V605H1503.06V631ZM1531.83 631H1522.24V605H1531.83V631ZM1541.42 631H1551.01V605H1541.42V631ZM1570.19 631H1560.6V605H1570.19V631ZM1579.78 631H1589.37V605H1579.78V631ZM1608.55 631H1598.96V605H1608.55V631ZM1618.14 631H1627.73V605H1618.14V631ZM1646.91 631H1637.32V605H1646.91V631ZM1656.5 631H1666.09V605H1656.5V631ZM1685.27 631H1675.68V605H1685.27V631ZM1694.86 631H1704.45V605H1694.86V631ZM1723.63 631H1714.04V605H1723.63V631ZM1733.22 631H1742.81V605H1733.22V631ZM1761.99 631H1752.4V605H1761.99V631ZM1771.58 631H1781.17V605H1771.58V631ZM1800.34 631H1790.75V605H1800.34V631ZM1809.93 631H1819.52V605H1809.93V631ZM1838.7 631H1829.11V605H1838.7V631ZM1848.29 631H1857.88V605H1848.29V631ZM1877.06 631H1867.47V605H1877.06V631ZM1886.65 631H1896.24V605H1886.65V631ZM1915.42 631H1905.83V605H1915.42V631ZM1925.01 631H1934.6V605H1925.01V631ZM1953.78 631H1944.19V605H1953.78V631ZM1963.37 631H1972.96V605H1963.37V631ZM1992.14 631H1982.55V605H1992.14V631ZM2001.73 631H2011.32V605H2001.73V631ZM2030.5 631H2020.91V605H2030.5V631ZM2040.09 631H2049.68V605H2040.09V631ZM2068.86 631H2059.27V605H2068.86V631ZM2078.45 631H2088.04V605H2078.45V631ZM2107.22 631H2097.63V605H2107.22V631ZM2126.39 631H2116.8V605H2126.39V631Z" fill="#1E1330" fill-opacity="0.6"/>
</svg>
