<svg width="608" height="428" viewBox="0 0 608 428" fill="none" xmlns="http://www.w3.org/2000/svg">
<g filter="url(#filter0_d_283_1774)">
<path d="M68 271H539V334C539 361.614 516.614 384 489 384H118C90.3858 384 68 361.614 68 334V271Z" fill="#9670D3"/>
</g>
<g filter="url(#filter1_d_283_1774)">
<path d="M492 68C492 94.2644 486.827 120.272 476.776 144.537C466.725 168.802 451.993 190.85 433.421 209.421C414.85 227.993 392.802 242.725 368.537 252.776C344.272 262.827 318.264 268 292 268C265.736 268 239.728 262.827 215.463 252.776C191.198 242.725 169.15 227.993 150.579 209.421C132.007 190.85 117.275 168.802 107.224 144.537C97.1731 120.272 92 94.2644 92 68L292 68H492Z" fill="url(#paint0_linear_283_1774)"/>
</g>
<path d="M214.444 200V181.8H222.972C225.156 181.8 226.82 182.233 227.964 183.1C229.108 183.949 229.68 185.093 229.68 186.532C229.68 187.503 229.455 188.335 229.004 189.028C228.553 189.704 227.947 190.233 227.184 190.614C226.439 190.978 225.624 191.16 224.74 191.16L225.208 190.224C226.231 190.224 227.149 190.415 227.964 190.796C228.779 191.16 229.42 191.697 229.888 192.408C230.373 193.119 230.616 194.003 230.616 195.06C230.616 196.62 230.018 197.833 228.822 198.7C227.626 199.567 225.849 200 223.492 200H214.444ZM217.824 197.348H223.284C224.549 197.348 225.52 197.14 226.196 196.724C226.872 196.308 227.21 195.641 227.21 194.722C227.21 193.821 226.872 193.162 226.196 192.746C225.52 192.313 224.549 192.096 223.284 192.096H217.564V189.47H222.608C223.787 189.47 224.688 189.262 225.312 188.846C225.953 188.43 226.274 187.806 226.274 186.974C226.274 186.125 225.953 185.492 225.312 185.076C224.688 184.66 223.787 184.452 222.608 184.452H217.824V197.348ZM240.151 200.182C238.73 200.182 237.465 199.879 236.355 199.272C235.246 198.648 234.371 197.799 233.729 196.724C233.088 195.649 232.767 194.427 232.767 193.058C232.767 191.671 233.088 190.449 233.729 189.392C234.371 188.317 235.246 187.477 236.355 186.87C237.465 186.263 238.73 185.96 240.151 185.96C241.59 185.96 242.864 186.263 243.973 186.87C245.1 187.477 245.975 188.309 246.599 189.366C247.241 190.423 247.561 191.654 247.561 193.058C247.561 194.427 247.241 195.649 246.599 196.724C245.975 197.799 245.1 198.648 243.973 199.272C242.864 199.879 241.59 200.182 240.151 200.182ZM240.151 197.4C240.949 197.4 241.659 197.227 242.283 196.88C242.907 196.533 243.393 196.031 243.739 195.372C244.103 194.713 244.285 193.942 244.285 193.058C244.285 192.157 244.103 191.385 243.739 190.744C243.393 190.085 242.907 189.583 242.283 189.236C241.659 188.889 240.957 188.716 240.177 188.716C239.38 188.716 238.669 188.889 238.045 189.236C237.439 189.583 236.953 190.085 236.589 190.744C236.225 191.385 236.043 192.157 236.043 193.058C236.043 193.942 236.225 194.713 236.589 195.372C236.953 196.031 237.439 196.533 238.045 196.88C238.669 197.227 239.371 197.4 240.151 197.4ZM248.314 200L254.424 192.044L254.372 193.786L248.548 186.116H252.162L256.244 191.576H254.866L258.974 186.116H262.484L256.608 193.786L256.634 192.044L262.718 200H259.052L254.762 194.202L256.114 194.384L251.902 200H248.314ZM270.893 200.26C269.471 200.26 268.111 200.061 266.811 199.662C265.511 199.246 264.479 198.717 263.717 198.076L264.887 195.45C265.615 196.022 266.516 196.499 267.591 196.88C268.665 197.261 269.766 197.452 270.893 197.452C271.846 197.452 272.617 197.348 273.207 197.14C273.796 196.932 274.229 196.655 274.507 196.308C274.784 195.944 274.923 195.537 274.923 195.086C274.923 194.531 274.723 194.089 274.325 193.76C273.926 193.413 273.406 193.145 272.765 192.954C272.141 192.746 271.439 192.555 270.659 192.382C269.896 192.209 269.125 192.009 268.345 191.784C267.582 191.541 266.88 191.238 266.239 190.874C265.615 190.493 265.103 189.99 264.705 189.366C264.306 188.742 264.107 187.945 264.107 186.974C264.107 185.986 264.367 185.085 264.887 184.27C265.424 183.438 266.23 182.779 267.305 182.294C268.397 181.791 269.775 181.54 271.439 181.54C272.531 181.54 273.614 181.679 274.689 181.956C275.763 182.233 276.699 182.632 277.497 183.152L276.431 185.778C275.616 185.293 274.775 184.937 273.909 184.712C273.042 184.469 272.21 184.348 271.413 184.348C270.477 184.348 269.714 184.461 269.125 184.686C268.553 184.911 268.128 185.206 267.851 185.57C267.591 185.934 267.461 186.35 267.461 186.818C267.461 187.373 267.651 187.823 268.033 188.17C268.431 188.499 268.943 188.759 269.567 188.95C270.208 189.141 270.919 189.331 271.699 189.522C272.479 189.695 273.25 189.895 274.013 190.12C274.793 190.345 275.495 190.64 276.119 191.004C276.76 191.368 277.271 191.862 277.653 192.486C278.051 193.11 278.251 193.899 278.251 194.852C278.251 195.823 277.982 196.724 277.445 197.556C276.925 198.371 276.119 199.029 275.027 199.532C273.935 200.017 272.557 200.26 270.893 200.26ZM289.168 185.96C290.278 185.96 291.266 186.177 292.132 186.61C293.016 187.043 293.71 187.711 294.212 188.612C294.715 189.496 294.966 190.64 294.966 192.044V200H291.716V192.46C291.716 191.229 291.422 190.311 290.832 189.704C290.26 189.097 289.454 188.794 288.414 188.794C287.652 188.794 286.976 188.95 286.386 189.262C285.797 189.574 285.338 190.042 285.008 190.666C284.696 191.273 284.54 192.044 284.54 192.98V200H281.29V180.708H284.54V189.86L283.838 188.716C284.324 187.832 285.026 187.156 285.944 186.688C286.88 186.203 287.955 185.96 289.168 185.96ZM307.643 200V197.192L307.461 196.594V191.68C307.461 190.727 307.175 189.99 306.603 189.47C306.031 188.933 305.164 188.664 304.003 188.664C303.223 188.664 302.452 188.785 301.689 189.028C300.944 189.271 300.311 189.609 299.791 190.042L298.517 187.676C299.262 187.104 300.146 186.679 301.169 186.402C302.209 186.107 303.284 185.96 304.393 185.96C306.404 185.96 307.955 186.445 309.047 187.416C310.156 188.369 310.711 189.851 310.711 191.862V200H307.643ZM303.275 200.182C302.235 200.182 301.325 200.009 300.545 199.662C299.765 199.298 299.158 198.804 298.725 198.18C298.309 197.539 298.101 196.819 298.101 196.022C298.101 195.242 298.283 194.54 298.647 193.916C299.028 193.292 299.644 192.798 300.493 192.434C301.342 192.07 302.469 191.888 303.873 191.888H307.903V194.046H304.107C302.998 194.046 302.252 194.228 301.871 194.592C301.49 194.939 301.299 195.372 301.299 195.892C301.299 196.481 301.533 196.949 302.001 197.296C302.469 197.643 303.119 197.816 303.951 197.816C304.748 197.816 305.459 197.634 306.083 197.27C306.724 196.906 307.184 196.369 307.461 195.658L308.007 197.608C307.695 198.423 307.132 199.055 306.317 199.506C305.52 199.957 304.506 200.182 303.275 200.182ZM320.783 200.182C319.449 200.182 318.244 199.887 317.169 199.298C316.112 198.691 315.28 197.859 314.673 196.802C314.067 195.745 313.763 194.497 313.763 193.058C313.763 191.619 314.067 190.371 314.673 189.314C315.28 188.257 316.112 187.433 317.169 186.844C318.244 186.255 319.449 185.96 320.783 185.96C321.945 185.96 322.985 186.22 323.903 186.74C324.822 187.243 325.55 188.014 326.087 189.054C326.625 190.094 326.893 191.429 326.893 193.058C326.893 194.67 326.633 196.005 326.113 197.062C325.593 198.102 324.874 198.882 323.955 199.402C323.037 199.922 321.979 200.182 320.783 200.182ZM321.173 197.4C321.953 197.4 322.647 197.227 323.253 196.88C323.877 196.533 324.371 196.031 324.735 195.372C325.117 194.713 325.307 193.942 325.307 193.058C325.307 192.157 325.117 191.385 324.735 190.744C324.371 190.085 323.877 189.583 323.253 189.236C322.647 188.889 321.953 188.716 321.173 188.716C320.393 188.716 319.691 188.889 319.067 189.236C318.461 189.583 317.967 190.085 317.585 190.744C317.221 191.385 317.039 192.157 317.039 193.058C317.039 193.942 317.221 194.713 317.585 195.372C317.967 196.031 318.461 196.533 319.067 196.88C319.691 197.227 320.393 197.4 321.173 197.4ZM325.385 200V196.724L325.515 193.032L325.255 189.34V180.708H328.479V200H325.385ZM338.997 200.182C337.576 200.182 336.31 199.879 335.201 199.272C334.092 198.648 333.216 197.799 332.575 196.724C331.934 195.649 331.613 194.427 331.613 193.058C331.613 191.671 331.934 190.449 332.575 189.392C333.216 188.317 334.092 187.477 335.201 186.87C336.31 186.263 337.576 185.96 338.997 185.96C340.436 185.96 341.71 186.263 342.819 186.87C343.946 187.477 344.821 188.309 345.445 189.366C346.086 190.423 346.407 191.654 346.407 193.058C346.407 194.427 346.086 195.649 345.445 196.724C344.821 197.799 343.946 198.648 342.819 199.272C341.71 199.879 340.436 200.182 338.997 200.182ZM338.997 197.4C339.794 197.4 340.505 197.227 341.129 196.88C341.753 196.533 342.238 196.031 342.585 195.372C342.949 194.713 343.131 193.942 343.131 193.058C343.131 192.157 342.949 191.385 342.585 190.744C342.238 190.085 341.753 189.583 341.129 189.236C340.505 188.889 339.803 188.716 339.023 188.716C338.226 188.716 337.515 188.889 336.891 189.236C336.284 189.583 335.799 190.085 335.435 190.744C335.071 191.385 334.889 192.157 334.889 193.058C334.889 193.942 335.071 194.713 335.435 195.372C335.799 196.031 336.284 196.533 336.891 196.88C337.515 197.227 338.217 197.4 338.997 197.4ZM352.202 200L347.106 186.116H350.174L354.542 198.362H353.086L357.662 186.116H360.392L364.838 198.362H363.408L367.906 186.116H370.792L365.67 200H362.55L358.494 189.158H359.456L355.322 200H352.202Z" fill="#1E1330"/>
<circle cx="292" cy="68" r="52.5" fill="#9670D3" stroke="#464646" stroke-width="5"/>
<rect x="4" width="600" height="300" rx="50" fill="#1E1330"/>
<rect x="4" width="600" height="300" rx="50" fill="#1E1330"/>
<g filter="url(#filter2_d_283_1774)">
<rect x="4" width="600" height="300" rx="50" fill="#1E1330"/>
</g>
<circle cx="554" cy="130" r="13" fill="#D4D4D4"/>
<path d="M557.602 126.844C557.602 127.247 557.557 127.664 557.466 128.094C557.381 128.523 557.244 128.937 557.056 129.334C556.873 129.731 556.639 130.096 556.352 130.428C556.066 130.76 555.724 131.03 555.327 131.238C555.711 131.408 556.014 131.619 556.235 131.873C556.463 132.127 556.636 132.391 556.753 132.664C556.87 132.931 556.945 133.188 556.977 133.436C557.01 133.676 557.026 133.872 557.026 134.021C557.026 134.516 556.951 134.943 556.802 135.301C556.658 135.652 556.473 135.952 556.245 136.199C556.017 136.44 555.76 136.635 555.474 136.785C555.194 136.928 554.914 137.039 554.634 137.117C554.36 137.195 554.103 137.244 553.862 137.264C553.621 137.29 553.429 137.303 553.286 137.303C553.104 137.296 552.918 137.28 552.729 137.254C552.567 137.228 552.391 137.189 552.202 137.137C552.02 137.091 551.854 137.02 551.704 136.922C551.743 135.685 551.763 134.451 551.763 133.221C551.763 131.548 551.724 129.894 551.645 128.26C551.574 126.626 551.466 124.979 551.323 123.318C551.623 123.227 551.919 123.156 552.212 123.104C552.511 123.051 552.781 123.012 553.022 122.986C553.302 122.96 553.569 122.944 553.823 122.938C554.025 122.938 554.256 122.964 554.516 123.016C554.783 123.061 555.057 123.146 555.337 123.27C555.617 123.387 555.89 123.543 556.157 123.738C556.431 123.927 556.675 124.168 556.89 124.461C557.104 124.747 557.277 125.089 557.407 125.486C557.537 125.877 557.602 126.329 557.602 126.844ZM555.708 127.283C555.708 127.29 555.708 127.234 555.708 127.117C555.708 126.993 555.692 126.84 555.659 126.658C555.633 126.469 555.584 126.264 555.513 126.043C555.447 125.822 555.347 125.613 555.21 125.418C555.073 125.223 554.894 125.053 554.673 124.91C554.458 124.76 554.188 124.669 553.862 124.637C553.823 125.711 553.784 126.782 553.745 127.85C553.712 128.917 553.686 129.988 553.667 131.062C553.901 130.978 554.11 130.857 554.292 130.701C554.481 130.545 554.643 130.372 554.78 130.184C554.923 129.988 555.044 129.783 555.141 129.568C555.239 129.347 555.324 129.129 555.395 128.914C555.558 128.413 555.662 127.869 555.708 127.283ZM555.161 133.758C555.148 133.439 555.083 133.149 554.966 132.889C554.914 132.778 554.852 132.667 554.78 132.557C554.709 132.439 554.617 132.335 554.507 132.244C554.403 132.146 554.279 132.065 554.136 132C553.992 131.928 553.83 131.876 553.647 131.844C553.628 132.527 553.612 133.208 553.599 133.885C553.585 134.555 553.579 135.232 553.579 135.916C553.774 135.844 553.947 135.76 554.097 135.662C554.246 135.558 554.377 135.451 554.487 135.34C554.598 135.223 554.689 135.102 554.761 134.979C554.839 134.855 554.904 134.734 554.956 134.617C555.073 134.344 555.141 134.057 555.161 133.758Z" fill="#EE7200"/>
<circle cx="579" cy="105" r="13" fill="#D4D4D4"/>
<path d="M580.483 111.078C580.451 110.629 580.418 110.176 580.386 109.721C580.36 109.265 580.327 108.806 580.288 108.344C580.002 108.324 579.725 108.305 579.458 108.285C579.191 108.266 578.921 108.256 578.647 108.256H578.52C578.488 108.725 578.459 109.187 578.433 109.643C578.406 110.098 578.384 110.551 578.364 111L575.923 110.961C576.326 108.637 576.691 106.319 577.016 104.008C577.342 101.697 577.619 99.3659 577.847 97.0156L580.786 97.0645C581.033 99.3887 581.33 101.7 581.675 103.998C582.026 106.29 582.436 108.598 582.905 110.922L580.483 111.078ZM579.341 99.4766C579.21 100.674 579.087 101.869 578.97 103.061C578.852 104.252 578.745 105.453 578.647 106.664C578.784 106.677 578.924 106.684 579.067 106.684C579.21 106.684 579.357 106.684 579.507 106.684H580.141C580.031 105.473 579.907 104.271 579.77 103.08C579.634 101.889 579.49 100.688 579.341 99.4766Z" fill="#F23C52"/>
<circle cx="554" cy="80" r="13" fill="#D4D4D4"/>
<path d="M557.856 72.1816C557.342 73.334 556.87 74.4961 556.44 75.668C556.017 76.8398 555.62 78.0312 555.249 79.2422C555.613 80.375 556.004 81.485 556.421 82.5723C556.844 83.6595 557.303 84.7435 557.798 85.8242L555.474 86.0586L554.331 82.3574C554.162 82.9824 553.999 83.6074 553.843 84.2324C553.693 84.8574 553.543 85.4857 553.393 86.1172L550.933 85.8438C551.375 84.7305 551.792 83.6237 552.183 82.5234C552.58 81.4167 552.964 80.2904 553.335 79.1445C552.964 77.9857 552.58 76.8398 552.183 75.707C551.792 74.5742 551.382 73.4316 550.952 72.2793L553.218 71.9766C553.387 72.6732 553.556 73.36 553.725 74.0371C553.901 74.7142 554.084 75.388 554.272 76.0586C554.474 75.388 554.669 74.7174 554.858 74.0469C555.054 73.3763 555.246 72.6927 555.434 71.9961L557.856 72.1816Z" fill="#2C27E9"/>
<circle cx="529" cy="105" r="13" fill="#D4D4D4"/>
<path d="M532.983 97.9961C532.462 99.6497 531.974 101.32 531.518 103.006C531.069 104.686 530.643 106.31 530.239 107.879V108.484C530.239 108.81 530.242 109.119 530.249 109.412C530.262 109.699 530.275 109.985 530.288 110.271C530.301 110.551 530.317 110.841 530.337 111.141C530.363 111.434 530.392 111.746 530.425 112.078H528.081C528.133 111.674 528.179 111.3 528.218 110.955C528.257 110.604 528.286 110.258 528.306 109.92C528.332 109.581 528.351 109.233 528.364 108.875C528.377 108.517 528.384 108.126 528.384 107.703C528.201 106.954 528.009 106.176 527.808 105.369C527.612 104.562 527.41 103.751 527.202 102.938C526.994 102.124 526.785 101.316 526.577 100.516C526.369 99.7083 526.164 98.9303 525.962 98.1816L528.403 97.9766C528.429 98.5104 528.472 99.0768 528.53 99.6758C528.595 100.268 528.67 100.874 528.755 101.492C528.839 102.111 528.934 102.736 529.038 103.367C529.142 103.999 529.25 104.617 529.36 105.223C529.484 104.604 529.604 103.976 529.722 103.338C529.845 102.693 529.959 102.059 530.063 101.434C530.168 100.809 530.262 100.2 530.347 99.6074C530.438 99.015 530.516 98.4583 530.581 97.9375L532.983 97.9961Z" fill="#3BB653"/>
<circle cx="54" cy="172" r="13" fill="#D4D4D4"/>
<path fill-rule="evenodd" clip-rule="evenodd" d="M54.845 165.394C54.4448 164.869 53.6539 164.869 53.2537 165.394L48.2062 172.024C47.705 172.682 48.1744 173.63 49.0018 173.63H52V177C52 178.105 52.8954 179 54 179C55.1046 179 56 178.105 56 177V173.63H59.0968C59.9242 173.63 60.3936 172.682 59.8924 172.024L54.845 165.394Z" fill="#2C27E9"/>
<circle cx="54" cy="222" r="13" fill="#D4D4D4"/>
<path fill-rule="evenodd" clip-rule="evenodd" d="M54.845 228.606C54.4448 229.131 53.6539 229.131 53.2537 228.606L48.2062 221.976C47.705 221.318 48.1744 220.37 49.0018 220.37H52V217C52 215.895 52.8954 215 54 215C55.1046 215 56 215.895 56 217V220.37H59.0968C59.9242 220.37 60.3936 221.318 59.8924 221.976L54.845 228.606Z" fill="#EE7200"/>
<circle cx="79" cy="197" r="13" fill="#D4D4D4"/>
<path fill-rule="evenodd" clip-rule="evenodd" d="M85.6058 197.845C86.1314 197.445 86.1314 196.654 85.6058 196.254L78.9762 191.206C78.3179 190.705 77.3705 191.174 77.3705 192.002L77.3705 195L74 195C72.8954 195 72 195.895 72 197C72 198.105 72.8954 199 74 199L77.3705 199L77.3705 202.097C77.3705 202.924 78.3179 203.394 78.9762 202.892L85.6058 197.845Z" fill="#F23C52"/>
<circle cx="29" cy="197" r="13" fill="#D4D4D4"/>
<path fill-rule="evenodd" clip-rule="evenodd" d="M22.3942 197.845C21.8686 197.445 21.8686 196.654 22.3942 196.254L29.0238 191.206C29.6821 190.705 30.6295 191.174 30.6295 192.002L30.6295 195L34 195C35.1046 195 36 195.895 36 197C36 198.105 35.1046 199 34 199L30.6295 199L30.6295 202.097C30.6295 202.924 29.6821 203.394 29.0238 202.892L22.3942 197.845Z" fill="#3BB653"/>
<circle cx="553.5" cy="212.5" r="22.5" fill="#D4D4D4"/>
<circle cx="53.5" cy="89.5" r="22.5" fill="#D5D5D5"/>
<rect x="516" y="250" width="30" height="10" rx="5" fill="#D4D4D4"/>
<rect x="561" y="250" width="30" height="10" rx="5" fill="#D4D4D4"/>
<rect x="61" y="42" width="30" height="10" rx="5" fill="#D5D5D5"/>
<mask id="mask0_283_1774" style="mask-type:alpha" maskUnits="userSpaceOnUse" x="104" y="20" width="400" height="260">
<rect x="104" y="20" width="400" height="260" rx="50" fill="white"/>
</mask>
<g mask="url(#mask0_283_1774)">
</g>
<defs>
<filter id="filter0_d_283_1774" x="64" y="271" width="479" height="121" filterUnits="userSpaceOnUse" color-interpolation-filters="sRGB">
<feFlood flood-opacity="0" result="BackgroundImageFix"/>
<feColorMatrix in="SourceAlpha" type="matrix" values="0 0 0 0 0 0 0 0 0 0 0 0 0 0 0 0 0 0 127 0" result="hardAlpha"/>
<feOffset dy="4"/>
<feGaussianBlur stdDeviation="2"/>
<feComposite in2="hardAlpha" operator="out"/>
<feColorMatrix type="matrix" values="0 0 0 0 0 0 0 0 0 0 0 0 0 0 0 0 0 0 0.5 0"/>
<feBlend mode="normal" in2="BackgroundImageFix" result="effect1_dropShadow_283_1774"/>
<feBlend mode="normal" in="SourceGraphic" in2="effect1_dropShadow_283_1774" result="shape"/>
</filter>
<filter id="filter1_d_283_1774" x="88" y="68" width="408" height="208" filterUnits="userSpaceOnUse" color-interpolation-filters="sRGB">
<feFlood flood-opacity="0" result="BackgroundImageFix"/>
<feColorMatrix in="SourceAlpha" type="matrix" values="0 0 0 0 0 0 0 0 0 0 0 0 0 0 0 0 0 0 127 0" result="hardAlpha"/>
<feOffset dy="4"/>
<feGaussianBlur stdDeviation="2"/>
<feComposite in2="hardAlpha" operator="out"/>
<feColorMatrix type="matrix" values="0 0 0 0 0 0 0 0 0 0 0 0 0 0 0 0 0 0 0.5 0"/>
<feBlend mode="normal" in2="BackgroundImageFix" result="effect1_dropShadow_283_1774"/>
<feBlend mode="normal" in="SourceGraphic" in2="effect1_dropShadow_283_1774" result="shape"/>
</filter>
<filter id="filter2_d_283_1774" x="0" y="0" width="608" height="308" filterUnits="userSpaceOnUse" color-interpolation-filters="sRGB">
<feFlood flood-opacity="0" result="BackgroundImageFix"/>
<feColorMatrix in="SourceAlpha" type="matrix" values="0 0 0 0 0 0 0 0 0 0 0 0 0 0 0 0 0 0 127 0" result="hardAlpha"/>
<feOffset dy="4"/>
<feGaussianBlur stdDeviation="2"/>
<feComposite in2="hardAlpha" operator="out"/>
<feColorMatrix type="matrix" values="0 0 0 0 0 0 0 0 0 0 0 0 0 0 0 0 0 0 0.25 0"/>
<feBlend mode="normal" in2="BackgroundImageFix" result="effect1_dropShadow_283_1774"/>
<feBlend mode="normal" in="SourceGraphic" in2="effect1_dropShadow_283_1774" result="shape"/>
</filter>
<linearGradient id="paint0_linear_283_1774" x1="292" y1="268" x2="292" y2="146.774" gradientUnits="userSpaceOnUse">
<stop stop-color="#C9C8CB"/>
<stop offset="0.600734" stop-color="#9D9C9E"/>
<stop offset="1" stop-color="#646465"/>
</linearGradient>
</defs>
</svg>
