<svg width="1080" height="808" viewBox="0 0 1080 808" fill="none" xmlns="http://www.w3.org/2000/svg">
<g clip-path="url(#clip0_388_1683)">
<path d="M748.773 284.862L636.774 233.759C620.121 226.16 600.461 233.5 592.862 250.153L541.759 362.152C534.16 378.805 541.501 398.465 558.154 406.064L670.152 457.167C686.805 464.766 706.465 457.425 714.064 440.772L765.167 328.774C772.766 312.121 765.426 292.461 748.773 284.862Z" fill="#001E36"/>
<path d="M589.65 359.848L622.917 286.941C623.155 286.42 623.535 286.278 624.058 286.516C629.8 288.956 637.039 292.169 645.774 296.155C656.078 300.856 662.564 306.608 665.234 313.41C667.978 320.247 667.802 327.057 664.707 333.84C660.863 342.264 655.019 347.164 647.176 348.538C639.332 349.913 630.893 348.539 621.859 344.417L615.251 341.402L603.924 366.226C603.652 366.823 603.218 366.985 602.62 366.712L590.189 361.04C589.592 360.767 589.412 360.37 589.65 359.848ZM632.701 303.16L620.149 330.667C621.127 331.293 623.519 332.475 627.327 334.213C632.329 336.495 636.854 337.254 640.902 336.489C645.058 335.683 648.276 332.783 650.555 327.788C652.561 323.39 652.728 319.368 651.054 315.722C649.454 312.11 646.079 309.129 640.927 306.778C639.658 306.199 638.372 305.657 637.069 305.153C635.874 304.607 634.866 304.148 634.045 303.773C633.298 303.432 632.85 303.228 632.701 303.16Z" fill="#31A8FE"/>
<path d="M699.647 360.726C696.656 356.21 692.884 352.912 688.33 350.834C685.716 349.642 683.554 349.24 681.843 349.63C680.206 350.054 679.081 350.937 678.469 352.279C677.857 353.621 677.835 355.052 678.404 356.573C679.007 358.019 680.683 360.179 683.43 363.054C688.539 368.267 691.712 372.778 692.952 376.586C694.3 380.353 694.021 384.324 692.117 388.499C689.803 393.568 685.991 396.782 680.68 398.142C675.478 399.461 669.592 398.621 663.022 395.623C656.451 392.626 651.62 388.98 648.527 384.687C648.147 384.333 648.094 383.858 648.366 383.262L653.111 372.863C653.247 372.564 653.407 372.412 653.59 372.406C653.882 372.359 654.069 372.444 654.15 372.661C657.37 378.454 661.743 382.611 667.268 385.132C669.881 386.324 672.063 386.779 673.816 386.498C675.676 386.176 676.947 385.27 677.627 383.779C678.341 382.213 678.377 380.653 677.733 379.099C677.123 377.469 675.465 375.272 672.758 372.505C667.84 367.469 664.781 363.101 663.583 359.402C662.493 355.662 662.866 351.78 664.703 347.754C666.812 343.132 670.335 340.056 675.273 338.527C680.21 336.997 685.927 337.714 692.423 340.678C698.47 343.437 702.762 346.386 705.299 349.525C705.57 349.919 705.536 350.489 705.196 351.234L700.961 360.515C700.553 361.41 700.115 361.48 699.647 360.726Z" fill="#31A8FE"/>
<path d="M760.5 483H695.5C685.835 483 678 490.835 678 500.5V565.5C678 575.165 685.835 583 695.5 583H760.5C770.165 583 778 575.165 778 565.5V500.5C778 490.835 770.165 483 760.5 483Z" fill="#2E0501"/>
<path d="M728.83 544.06H713.784L710.022 555.478C709.979 555.826 709.741 556 709.309 556H702.499C702.067 556 701.915 555.783 702.045 555.348L715.535 516.59C715.838 515.938 716.032 514.72 716.119 512.936C716.119 512.675 716.27 512.545 716.573 512.545H725.912C726.128 512.545 726.301 512.653 726.431 512.871L741.477 555.413C741.607 555.804 741.477 556 741.088 556H733.435C733.132 556 732.916 555.848 732.787 555.543L728.83 544.06ZM715.47 537.73H727.144C726.971 537.122 726.063 534.359 724.42 529.444C722.82 524.485 721.761 521.092 721.242 519.265H721.177C720.659 521.484 718.756 527.639 715.47 537.73Z" fill="#F2A032"/>
<path d="M745.504 555.413V524.746C745.504 524.398 745.677 524.224 746.023 524.224H753.222C753.568 524.224 753.741 524.398 753.741 524.746V555.478C753.741 555.826 753.568 556 753.222 556H746.088C745.698 556 745.504 555.804 745.504 555.413ZM752.833 517.634C752.054 518.417 750.995 518.809 749.655 518.809C748.314 518.809 747.255 518.417 746.477 517.634C745.698 516.851 745.309 515.785 745.309 514.437C745.309 513.132 745.72 512.066 746.542 511.24C747.363 510.413 748.422 510 749.72 510C751.017 510 752.054 510.413 752.833 511.24C753.611 512.066 754 513.132 754 514.437C754 515.785 753.611 516.851 752.833 517.634Z" fill="#F2A032"/>
<path d="M902.292 306.338L772.85 341.022C753.603 346.179 742.181 365.963 747.338 385.21L782.022 514.652C787.179 533.899 806.963 545.321 826.21 540.164L955.652 505.48C974.899 500.323 986.321 480.539 981.164 461.292L946.48 331.85C941.323 312.603 921.539 301.181 902.292 306.338Z" fill="#430C1F"/>
<path d="M827.804 391.334L850.139 474.69C850.348 475.467 850.104 475.95 849.408 476.136L835.702 479.808C835.006 479.995 834.554 479.699 834.346 478.921L812.01 395.566C811.825 394.875 812.081 394.436 812.777 394.249L826.613 390.542C827.222 390.379 827.619 390.643 827.804 391.334Z" fill="#EC4E68"/>
<path d="M893.27 465.634C883.524 468.245 875.006 467.61 867.717 463.727C860.428 459.845 855.36 452.588 852.511 441.958C849.918 432.279 850.92 423.488 855.518 415.587C860.116 407.686 867.636 402.336 878.078 399.538C880.688 398.839 883.009 398.449 885.039 398.368L877.536 370.367C877.397 369.848 877.588 369.519 878.111 369.379L892.468 365.532C892.903 365.415 893.19 365.616 893.329 366.135L914.136 443.786C915.016 447.07 915.911 449.887 916.82 452.237C917.046 452.733 916.933 453.18 916.48 453.579C909.882 459.237 902.146 463.255 893.27 465.634ZM898.968 450.352L888.234 410.294C886.239 409.81 883.763 409.964 880.804 410.757C875.496 412.179 871.686 415.191 869.376 419.794C867.065 424.396 866.824 430.111 868.653 436.938C870.599 444.198 873.644 449.125 877.79 451.719C882.023 454.29 886.663 454.899 891.71 453.547C894.842 452.707 897.262 451.642 898.968 450.352Z" fill="#EC4E68"/>
<path d="M746.136 155.419L818.659 178.832C821.272 179.672 823.689 181.033 825.772 182.836C827.856 184.64 829.564 186.85 830.799 189.341C832.035 191.831 832.773 194.553 832.972 197.351C833.172 200.149 832.828 202.968 831.961 205.646L808.878 277.149C808.015 279.829 806.646 282.317 804.848 284.47C803.051 286.624 800.86 288.4 798.401 289.698C795.943 290.996 793.265 291.791 790.521 292.035C787.776 292.28 785.02 291.971 782.408 291.125L709.885 267.713C707.272 266.872 704.855 265.511 702.772 263.708C700.689 261.905 698.981 259.695 697.745 257.204C696.51 254.713 695.771 251.991 695.572 249.193C695.373 246.395 695.717 243.577 696.584 240.898L719.667 169.395C720.529 166.715 721.899 164.228 723.696 162.074C725.494 159.921 727.685 158.145 730.143 156.846C732.602 155.548 735.28 154.754 738.024 154.509C740.768 154.264 743.525 154.574 746.136 155.419V155.419Z" fill="#000B1D"/>
<path d="M729.609 236.622C729.027 236.865 728.388 236.941 727.766 236.843C727.143 236.745 726.559 236.475 726.08 236.065L720.981 231.687C720.472 231.252 720.102 230.676 719.918 230.032C719.734 229.388 719.744 228.704 719.946 228.066L731.119 193.458C731.328 192.821 731.72 192.261 732.246 191.846C732.771 191.431 733.408 191.18 734.075 191.125L740.759 190.595C741.387 190.542 742.018 190.665 742.581 190.95C743.144 191.234 743.617 191.669 743.947 192.206L744.916 193.728C744.71 193.449 744.431 193.232 744.11 193.101C743.788 192.97 743.437 192.931 743.094 192.987C742.752 193.043 742.432 193.193 742.169 193.42C741.906 193.647 741.711 193.941 741.605 194.272L728.93 233.537C728.822 233.867 728.808 234.22 728.889 234.557C728.969 234.895 729.142 235.204 729.386 235.45C729.631 235.695 729.939 235.869 730.277 235.951C730.614 236.033 730.967 236.02 731.298 235.913L729.609 236.622Z" fill="#52218A"/>
<path d="M720.981 231.687C720.472 231.252 720.102 230.676 719.918 230.032C719.734 229.388 719.744 228.704 719.947 228.066L720.033 227.798C719.916 228.174 719.914 228.576 720.028 228.953C720.142 229.329 720.367 229.663 720.672 229.912C720.978 230.16 721.351 230.31 721.743 230.345C722.135 230.379 722.528 230.294 722.872 230.103L791.122 190.729C792.063 190.25 793.13 190.074 794.175 190.225C795.22 190.377 796.192 190.848 796.959 191.574L810.512 204.477C811.21 205.141 811.707 205.989 811.944 206.923C812.181 207.857 812.15 208.839 811.854 209.756L811.793 209.943C811.981 209.361 811.999 208.738 811.846 208.146C811.693 207.554 811.376 207.017 810.93 206.599C810.485 206.18 809.93 205.896 809.329 205.781C808.729 205.665 808.108 205.722 807.539 205.945L731.298 235.913L729.609 236.622C729.027 236.865 728.389 236.941 727.766 236.843C727.143 236.745 726.559 236.475 726.08 236.065L720.981 231.687Z" fill="#6C33AF"/>
<path d="M734.075 191.124C733.407 191.18 732.771 191.431 732.245 191.846C731.719 192.261 731.327 192.821 731.118 193.457L731.032 193.725C731.157 193.352 731.39 193.025 731.703 192.786C732.016 192.547 732.393 192.407 732.786 192.384C733.179 192.362 733.57 192.457 733.908 192.659C734.246 192.861 734.516 193.159 734.683 193.515L767.028 265.364C767.511 266.303 768.273 267.069 769.209 267.557C770.146 268.045 771.21 268.232 772.257 268.091L790.796 265.548C791.751 265.417 792.65 265.02 793.388 264.401C794.127 263.782 794.676 262.967 794.971 262.05L795.032 261.863C794.843 262.445 794.494 262.961 794.024 263.352C793.554 263.743 792.982 263.992 792.376 264.071C791.77 264.151 791.154 264.056 790.599 263.799C790.044 263.542 789.574 263.133 789.243 262.619L744.916 193.728L743.96 192.166C743.623 191.634 743.146 191.206 742.581 190.928C742.016 190.651 741.385 190.536 740.758 190.595L734.075 191.124Z" fill="#854CC7"/>
<path d="M772.257 268.091C771.21 268.232 770.146 268.045 769.21 267.557C768.273 267.069 767.511 266.303 767.028 265.364C767.299 265.89 767.721 266.324 768.238 266.611C768.756 266.898 769.347 267.026 769.937 266.978C770.527 266.93 771.09 266.708 771.554 266.341C772.019 265.974 772.364 265.478 772.547 264.915L795.332 194.336C795.516 193.772 795.529 193.166 795.369 192.595C795.208 192.023 794.882 191.512 794.432 191.126C793.981 190.74 793.426 190.496 792.837 190.426C792.248 190.355 791.651 190.46 791.122 190.729C792.063 190.25 793.129 190.074 794.174 190.226C795.219 190.377 796.192 190.848 796.958 191.574L810.514 204.469C811.212 205.133 811.709 205.981 811.946 206.915C812.183 207.849 812.152 208.831 811.856 209.748L794.969 262.058C794.673 262.975 794.124 263.79 793.386 264.409C792.647 265.028 791.749 265.426 790.794 265.556L772.257 268.091Z" fill="#B179F1"/>
<g opacity="0.25">
<path fill-rule="evenodd" clip-rule="evenodd" d="M768.953 267.419C769.947 268.01 771.111 268.247 772.257 268.091L790.794 265.556C791.749 265.426 792.647 265.028 793.386 264.409C794.125 263.79 794.673 262.975 794.969 262.058L811.856 209.748C812.152 208.831 812.184 207.849 811.946 206.915C811.709 205.981 811.212 205.133 810.514 204.469L796.958 191.574C795.999 190.662 794.724 190.157 793.4 190.165C792.607 190.174 791.827 190.367 791.122 190.729L756.025 210.984L744.916 193.728L743.96 192.166C743.672 191.697 743.275 191.305 742.803 191.024C742.331 190.742 741.798 190.578 741.249 190.547C741.09 190.532 740.93 190.534 740.772 190.554L734.075 191.125C733.45 191.174 732.85 191.396 732.342 191.764C731.834 192.133 731.438 192.635 731.197 193.214C731.171 193.295 731.145 193.376 731.118 193.458L719.946 228.066C719.92 228.147 719.894 228.228 719.868 228.309C719.724 228.92 719.752 229.559 719.949 230.155C720.145 230.751 720.502 231.281 720.981 231.687L726.093 236.025C726.21 236.134 726.338 236.229 726.476 236.31C726.939 236.605 727.467 236.784 728.015 236.832C728.563 236.879 729.114 236.793 729.622 236.582L731.297 235.913L750.399 228.41L767.028 265.364C767.465 266.216 768.132 266.928 768.953 267.419ZM789.264 213.133L763.831 223.125L778.621 246.102L789.264 213.133ZM738.863 202.766L745.335 217.154L731.671 225.043L738.863 202.766Z" fill="url(#paint0_linear_388_1683)"/>
</g>
<path d="M227.439 437.138L371.737 399.259C376.933 397.89 382.355 397.585 387.693 398.362C393.03 399.139 398.178 400.982 402.843 403.787C407.507 406.591 411.596 410.302 414.876 414.706C418.155 419.11 420.561 424.122 421.956 429.453L459.302 571.723C460.706 577.052 461.072 582.599 460.378 588.046C459.685 593.493 457.945 598.734 455.26 603.468C452.574 608.202 448.995 612.336 444.727 615.635C440.46 618.933 435.587 621.33 430.389 622.689L286.09 660.568C280.894 661.938 275.472 662.243 270.135 661.466C264.798 660.689 259.649 658.845 254.985 656.041C250.32 653.236 246.231 649.526 242.952 645.122C239.672 640.717 237.266 635.706 235.872 630.374L198.526 488.105C197.121 482.775 196.756 477.229 197.449 471.781C198.143 466.334 199.882 461.094 202.568 456.36C205.253 451.626 208.832 447.491 213.1 444.193C217.368 440.895 222.24 438.498 227.439 437.138V437.138Z" fill="#000B1D"/>
<path d="M384.965 450.261L348.999 443.269C344.836 442.46 340.616 444.37 338.477 448.032L258.968 570.774C256.829 574.075 257.995 578.501 261.482 580.321L272.057 585.842C274.908 587.33 278.415 586.574 280.399 584.044L381.207 455.511C384.589 451.198 391.445 452.618 392.836 457.919L392.739 457.548C391.762 453.827 388.74 450.995 384.965 450.261Z" fill="#0065A9"/>
<g filter="url(#filter0_d_388_1683)">
<path d="M416.86 571.766L388.966 595.522C385.737 598.272 381.123 598.68 377.461 596.541L247.917 528.676C244.432 526.851 243.274 522.423 245.417 519.125L251.918 509.122C253.67 506.425 257.096 505.361 260.067 506.591L411.008 569.039C416.072 571.134 421.347 566.53 419.955 561.23L420.053 561.6C421.029 565.321 419.788 569.272 416.86 571.766Z" fill="#007ACC"/>
</g>
<g filter="url(#filter1_d_388_1683)">
<path d="M388.968 595.524C385.738 598.273 381.123 598.68 377.461 596.541C381.974 599.177 387.42 595.041 386.093 589.987L349.215 449.501C347.889 444.447 341.113 443.52 338.477 448.032C340.616 444.37 344.836 442.459 349 443.266L384.954 450.238C388.732 450.971 391.756 453.804 392.733 457.526L420.059 561.623C421.036 565.345 419.793 569.298 416.862 571.792L388.968 595.524Z" fill="#1F9CF0"/>
</g>
<g style="mix-blend-mode:overlay" opacity="0.25">
<path style="mix-blend-mode:overlay" fill-rule="evenodd" clip-rule="evenodd" d="M381.287 597.857C383.977 598.167 386.745 597.375 388.897 595.543L416.772 571.816C419.701 569.323 420.942 565.37 419.965 561.648L392.639 457.551C391.662 453.829 388.64 450.995 384.864 450.262L348.928 443.285C345.287 442.578 341.603 443.952 339.307 446.76C338.98 447.161 338.68 447.591 338.413 448.049L291.962 519.805L260.056 506.594C257.086 505.364 253.663 506.428 251.912 509.124L245.416 519.125C243.275 522.423 244.433 526.851 247.916 528.676L276.514 543.669L258.967 570.775C256.83 574.076 257.995 578.501 261.481 580.322L272.051 585.844C274.9 587.333 278.405 586.577 280.388 584.047L301.691 556.869L377.397 596.558C378.617 597.271 379.942 597.701 381.287 597.857ZM358.35 484.584L321.24 531.928L376.819 554.942L358.35 484.584Z" fill="url(#paint1_linear_388_1683)"/>
</g>
<g clip-path="url(#clip1_388_1683)">
<path d="M452.305 330.832L515.095 345.944C517.357 346.486 519.487 347.481 521.364 348.87C523.24 350.26 524.826 352.017 526.03 354.042C527.235 356.067 528.034 358.32 528.383 360.671C528.731 363.023 528.622 365.427 528.062 367.746L513.162 429.653C512.606 431.973 511.61 434.164 510.229 436.099C508.849 438.034 507.112 439.677 505.118 440.932C503.124 442.187 500.912 443.031 498.609 443.415C496.306 443.798 493.957 443.714 491.696 443.168L428.905 428.056C426.643 427.514 424.513 426.52 422.637 425.13C420.76 423.74 419.175 421.983 417.97 419.958C416.766 417.933 415.966 415.68 415.618 413.329C415.269 410.977 415.378 408.573 415.939 406.254L430.838 344.347C431.394 342.027 432.391 339.836 433.771 337.901C435.152 335.966 436.888 334.323 438.882 333.068C440.876 331.813 443.088 330.969 445.391 330.585C447.694 330.202 450.044 330.286 452.305 330.832V330.832Z" fill="#EC4E68"/>
<path d="M466.708 417.683C450.07 413.678 439.793 396.885 443.797 380.248C447.801 363.61 464.594 353.333 481.232 357.337C491.967 359.921 500.589 368.108 503.732 378.702L488.856 383.116C487.283 377.813 482.97 373.715 477.601 372.423C469.282 370.421 460.885 375.56 458.883 383.879C456.881 392.197 462.02 400.594 470.339 402.596C475.708 403.888 481.413 402.202 485.228 398.195L496.467 408.893C488.847 416.899 477.444 420.267 466.708 417.683Z" fill="white"/>
</g>
<g clip-path="url(#clip2_388_1683)">
<path d="M622.781 583H764.219C769.313 582.995 774.358 584.021 779.065 586.018C783.773 588.015 788.05 590.945 791.652 594.639C795.254 598.334 798.11 602.72 800.058 607.548C802.005 612.376 803.005 617.551 803 622.776V762.224C803.005 767.449 802.005 772.624 800.058 777.452C798.11 782.28 795.254 786.666 791.652 790.361C788.05 794.055 783.773 796.985 779.065 798.982C774.358 800.979 769.313 802.005 764.219 802H622.781C617.687 802.005 612.642 800.979 607.935 798.982C603.227 796.985 598.95 794.055 595.348 790.361C591.746 786.666 588.89 782.28 586.942 777.452C584.995 772.624 583.995 767.449 584 762.224V622.776C583.995 617.551 584.995 612.376 586.942 607.548C588.89 602.72 591.746 598.334 595.348 594.639C598.95 590.945 603.227 588.015 607.935 586.018C612.642 584.021 617.687 582.995 622.781 583V583Z" fill="#F7DF1E"/>
<path d="M731.484 754.359C735.896 761.561 741.635 766.856 751.785 766.856C760.313 766.856 765.76 762.594 765.76 756.705C765.76 749.649 760.163 747.149 750.777 743.044L745.633 740.836C730.782 734.51 720.917 726.584 720.917 709.829C720.917 694.395 732.677 682.645 751.055 682.645C764.14 682.645 773.546 687.199 780.325 699.122L764.3 709.412C760.771 703.085 756.965 700.593 751.055 700.593C745.028 700.593 741.207 704.416 741.207 709.412C741.207 715.585 745.031 718.085 753.861 721.909L759.005 724.112C776.491 731.611 786.363 739.255 786.363 756.441C786.363 774.969 771.808 785.12 752.262 785.12C733.15 785.12 720.802 776.012 714.761 764.075L731.484 754.359ZM658.787 756.142C662.02 761.878 664.961 766.727 672.031 766.727C678.792 766.727 683.058 764.082 683.058 753.796V683.82H703.637V754.074C703.637 775.383 691.143 785.081 672.907 785.081C656.43 785.081 646.888 776.554 642.035 766.284L658.787 756.142Z" fill="black"/>
</g>
<g clip-path="url(#clip3_388_1683)">
<path d="M573.489 414.179L653.322 491.421C656.2 494.2 658.487 497.534 660.054 501.232C661.62 504.93 662.434 508.92 662.45 512.972C662.465 517.025 661.682 521.061 660.144 524.849C658.607 528.638 656.345 532.104 653.489 535.051L577.333 613.761C574.483 616.713 571.093 619.087 567.357 620.749C563.621 622.411 559.613 623.327 555.562 623.445C551.511 623.563 547.497 622.881 543.75 621.437C540.002 619.994 536.594 617.817 533.722 615.032L453.889 537.791C451.011 535.012 448.723 531.677 447.157 527.979C445.591 524.281 444.777 520.292 444.761 516.24C444.746 512.187 445.529 508.151 447.067 504.362C448.604 500.574 450.866 497.107 453.722 494.161L529.877 415.451C532.728 412.499 536.118 410.125 539.854 408.463C543.59 406.801 547.598 405.885 551.649 405.767C555.699 405.649 559.713 406.331 563.461 407.774C567.209 409.218 570.617 411.394 573.489 414.179V414.179Z" fill="black"/>
<path d="M593.497 473.027C572.071 452.297 564.419 462.883 564.419 462.883L555.13 472.532L575.576 492.315L572.78 495.205L544.212 467.565C544.212 467.565 532.006 452.744 511.088 474.363C490.171 495.982 502.88 506.794 502.88 506.794L510.021 513.704L519.728 503.672C519.728 503.672 530.922 491.333 543.082 503.099C555.243 514.865 563.361 522.72 563.361 522.72C563.361 522.72 574.577 533.928 585.409 522.732C596.241 511.537 603.32 504.221 603.32 504.221C603.32 504.221 615.889 494.692 593.497 473.027ZM575.96 468.592C577.995 470.561 578.048 473.795 576.08 475.83C574.111 477.864 570.876 477.917 568.842 475.949C566.808 473.981 566.755 470.746 568.723 468.712C570.691 466.677 573.926 466.624 575.96 468.592Z" fill="url(#paint2_linear_388_1683)"/>
<path d="M512.87 557.577C534.296 578.308 541.948 567.722 541.948 567.722L551.238 558.073L530.792 538.29L533.588 535.4L562.156 563.04C562.156 563.04 574.362 577.86 595.279 556.241C616.197 534.622 603.488 523.811 603.488 523.811L596.346 516.9L586.64 526.932C586.64 526.932 575.446 539.272 563.286 527.506C551.125 515.74 543.006 507.885 543.006 507.885C543.006 507.885 531.791 496.677 520.959 507.872C510.127 519.068 503.048 526.384 503.048 526.384C503.048 526.384 490.479 535.913 512.87 557.577ZM530.408 562.012C528.373 560.044 528.32 556.809 530.288 554.775C532.256 552.741 535.491 552.687 537.526 554.655C539.56 556.624 539.613 559.859 537.645 561.893C535.677 563.927 532.442 563.981 530.408 562.012Z" fill="url(#paint3_linear_388_1683)"/>
</g>
<g clip-path="url(#clip4_388_1683)">
<path d="M897.028 527.091L1047.99 567.543C1053.43 568.994 1058.52 571.532 1062.98 575.01C1067.43 578.488 1071.16 582.838 1073.95 587.812C1076.73 592.785 1078.53 598.285 1079.23 603.995C1079.92 609.705 1079.51 615.514 1078.01 621.09L1038.13 769.933C1036.64 775.511 1034.09 780.748 1030.63 785.345C1027.17 789.941 1022.87 793.806 1017.97 796.72C1013.07 799.633 1007.67 801.536 1002.07 802.322C996.474 803.107 990.796 802.759 985.36 801.297L834.394 760.846C828.955 759.394 823.863 756.856 819.41 753.378C814.957 749.9 811.229 745.55 808.441 740.576C805.653 735.603 803.859 730.104 803.161 724.393C802.463 718.683 802.876 712.874 804.375 707.299L844.258 558.455C845.747 552.877 848.294 547.64 851.753 543.044C855.213 538.447 859.516 534.582 864.418 531.669C869.319 528.756 874.722 526.852 880.318 526.066C885.913 525.281 891.592 525.629 897.028 527.091V527.091Z" fill="#000B1D"/>
<path d="M899.689 729.487C913.137 733.09 926.96 725.11 930.563 711.662L937.087 687.312L912.738 680.788C899.29 677.185 885.468 685.165 881.864 698.613C878.261 712.061 886.241 725.883 899.689 729.487Z" fill="#0ACF83"/>
<path d="M894.913 649.914C898.516 636.467 912.339 628.486 925.787 632.089L950.136 638.614L937.087 687.313L912.738 680.788C899.29 677.185 891.31 663.362 894.913 649.914Z" fill="#A259FF"/>
<path d="M907.962 601.216C911.565 587.768 925.388 579.787 938.836 583.391L963.185 589.915L950.136 638.614L925.787 632.089C912.339 628.486 904.359 614.663 907.962 601.216Z" fill="#F24E1E"/>
<path d="M963.186 589.915L987.535 596.439C1000.98 600.043 1008.96 613.865 1005.36 627.313C1001.76 640.761 987.934 648.742 974.486 645.138L950.137 638.614L963.186 589.915Z" fill="#FF7262"/>
<path d="M992.311 676.012C988.708 689.46 974.885 697.44 961.437 693.837C947.99 690.234 940.009 676.411 943.612 662.963C947.216 649.515 961.038 641.535 974.486 645.138C987.934 648.741 995.914 662.564 992.311 676.012Z" fill="#1ABCFE"/>
</g>
<path d="M168.208 660H263.792C267.234 659.997 270.644 660.69 273.825 662.039C277.006 663.389 279.897 665.369 282.331 667.866C284.765 670.362 286.696 673.327 288.012 676.59C289.328 679.853 290.003 683.349 290 686.88V781.12C290.003 784.651 289.328 788.147 288.012 791.41C286.696 794.673 284.765 797.638 282.331 800.134C279.897 802.631 277.006 804.611 273.825 805.961C270.644 807.31 267.234 808.003 263.792 808H168.208C164.766 808.003 161.356 807.31 158.175 805.961C154.994 804.611 152.103 802.631 149.669 800.134C147.235 797.638 145.304 794.673 143.988 791.41C142.672 788.147 141.997 784.651 142 781.12V686.88C141.997 683.349 142.672 679.853 143.988 676.59C145.304 673.327 147.235 670.362 149.669 667.866C152.103 665.369 154.994 663.389 158.175 662.039C161.356 660.69 164.766 659.997 168.208 660V660Z" fill="#000B1D"/>
<path d="M197.463 722.322C196.538 723.748 195.643 725.181 194.78 726.616C193.836 724.017 193.007 721.457 192.301 718.96C194.811 718.601 197.479 718.317 200.291 718.12C199.336 719.489 198.392 720.89 197.463 722.322ZM266.866 727.352C264.086 724.682 260.11 722.237 255.051 720.082C245.007 715.805 231.554 713.033 217.169 712.279C215.435 712.188 213.741 712.126 212.103 712.093C223.086 698.984 233.692 692.009 239.87 691.774C241.178 691.724 242.276 691.983 243.136 692.542C246.027 694.421 246.829 700.248 245.282 708.131C244.976 709.687 245.99 711.196 247.546 711.501C249.102 711.806 250.611 710.793 250.916 709.237C253.576 695.686 249.855 690.061 246.266 687.727C244.392 686.509 242.165 685.941 239.652 686.036C230.15 686.397 216.837 696.528 204.689 712.147C199.879 712.313 195.243 712.729 190.905 713.376C190.429 711.166 190.061 709.023 189.812 706.969C188.723 697.99 190.059 691.616 193.386 689.919C193.921 689.647 194.505 689.49 195.172 689.44C198.146 689.216 202.341 691.214 206.977 695.064C208.197 696.077 210.007 695.91 211.02 694.69C212.033 693.47 211.865 691.66 210.646 690.647C204.691 685.701 199.34 683.368 194.743 683.714C193.321 683.82 191.987 684.187 190.778 684.804C187.687 686.38 185.575 689.398 184.5 693.775C183.579 697.523 183.449 702.195 184.112 707.661C184.374 709.823 184.758 712.072 185.252 714.389C181.861 715.104 178.718 715.974 175.901 716.992C163.576 721.444 160.73 727.313 160.514 731.452C160.307 735.406 162.331 741.29 173.148 746.869C174.558 747.596 176.289 747.042 177.016 745.633C177.743 744.224 177.189 742.492 175.78 741.765C169.557 738.556 166.083 734.907 166.248 731.752C166.481 727.308 173.93 722.604 186.62 719.953C187.795 724.198 189.305 728.608 191.116 733.078C186.555 741.64 183.227 750.077 181.501 757.583C180.268 762.946 179.908 767.603 180.43 771.423C181.04 775.885 182.825 779.106 185.734 780.997C187.217 781.961 189.217 782.715 191.843 782.715C195.651 782.715 200.776 781.129 207.551 776.297C208.842 775.376 209.142 773.583 208.221 772.292C207.301 771.001 205.508 770.701 204.217 771.622C197.538 776.385 191.799 778.09 188.863 776.183C185.733 774.148 185.073 767.676 187.098 758.87C188.44 753.03 190.836 746.558 194.084 739.887C194.79 741.397 195.526 742.908 196.294 744.416C202.832 757.26 210.837 768.435 218.833 775.883C222.859 779.633 226.711 782.274 230.28 783.731C232.445 784.615 234.478 785.058 236.366 785.058C238.113 785.057 239.736 784.679 241.222 783.921C244.203 782.4 246.276 779.533 247.384 775.398C248.332 771.856 248.545 767.439 248.017 762.268C246.979 752.1 243.137 739.699 237.199 727.349C236.512 725.92 234.796 725.319 233.367 726.006C231.938 726.693 231.336 728.409 232.024 729.838C237.681 741.603 241.332 753.328 242.305 762.851C243.16 771.226 241.78 777.19 238.613 778.805C235.288 780.501 229.357 777.838 222.746 771.681C215.23 764.68 207.653 754.072 201.411 741.811C199.984 739.008 198.669 736.199 197.473 733.411C198.958 730.757 200.563 728.093 202.28 725.447C204.031 722.749 205.803 720.206 207.581 717.821C208.052 717.814 208.526 717.809 209.004 717.808C211.47 717.8 214.112 717.869 216.869 718.013C230.599 718.733 243.36 721.344 252.801 725.365C261.106 728.902 265.947 733.241 265.751 736.972C265.585 740.141 261.736 743.416 255.189 745.957C253.711 746.531 252.978 748.195 253.552 749.673C253.993 750.81 255.079 751.506 256.229 751.506C256.575 751.506 256.926 751.443 257.267 751.31C268.643 746.894 271.278 741.239 271.486 737.273C271.667 733.806 270.113 730.468 266.866 727.352Z" fill="#0ACF83"/>
<path d="M210.074 735.131C210.074 738.599 212.883 741.41 216.348 741.41C219.812 741.41 222.621 738.599 222.621 735.131C222.621 731.663 219.812 728.852 216.348 728.852C212.883 728.852 210.074 731.663 210.074 735.131Z" fill="#0ACF83"/>
<path d="M942.711 86.7138L1054.61 151.317C1058.64 153.64 1062.16 156.756 1064.97 160.486C1067.79 164.216 1069.83 168.487 1070.99 173.055C1072.16 177.624 1072.41 182.399 1071.75 187.108C1071.08 191.817 1069.51 196.367 1067.12 200.499L1003.43 310.821C1001.04 314.957 997.889 318.594 994.143 321.524C990.397 324.454 986.134 326.62 981.596 327.897C977.059 329.175 972.337 329.539 967.701 328.969C963.064 328.399 958.605 326.906 954.577 324.575L842.681 259.972C838.648 257.649 835.125 254.533 832.313 250.803C829.502 247.073 827.456 242.802 826.294 238.234C825.131 233.665 824.875 228.89 825.54 224.181C826.205 219.472 827.777 214.922 830.168 210.79L893.862 100.468C896.245 96.3322 899.4 92.6951 903.145 89.7649C906.891 86.8348 911.155 84.6689 915.692 83.3914C920.229 82.1139 924.951 81.7497 929.587 82.3198C934.224 82.8899 938.683 84.3831 942.711 86.7138V86.7138Z" fill="black"/>
<path d="M1014.51 235.954L990.524 146.463C989.146 141.31 983.847 138.251 978.692 139.631L960.108 144.612L966.424 168.184C970.575 169.017 974.103 172.103 975.273 176.469C976.446 180.862 974.909 185.329 971.694 188.12L977.781 210.84C981.959 211.651 985.531 214.748 986.704 219.142C988.349 225.277 984.711 231.578 978.575 233.223C972.437 234.868 966.136 231.23 964.49 225.091C963.255 220.474 965.013 215.759 968.575 213.01L962.898 191.822L942.488 227.17C943.165 228.187 943.699 229.331 944.035 230.574C945.678 236.708 942.041 243.008 935.903 244.658C929.768 246.301 923.463 242.661 921.822 236.529C920.182 230.389 923.819 224.088 929.954 222.444C931.469 222.04 933.001 221.956 934.469 222.154L955.067 186.477C954.16 185.306 953.465 183.944 953.061 182.421C951.814 177.776 953.601 173.042 957.201 170.297L950.976 147.057L889.616 163.498C884.46 164.882 881.4 170.181 882.782 175.336L906.762 264.825C908.141 269.979 913.439 273.037 918.596 271.658L1007.67 247.797C1012.82 246.414 1015.88 241.113 1014.5 235.958" fill="#F05133"/>
<g clip-path="url(#clip5_388_1683)">
<path d="M1008.39 10.3495L1068.68 33.5065C1070.85 34.3385 1072.83 35.6016 1074.51 37.2236C1076.19 38.8456 1077.53 40.7947 1078.46 42.9593C1079.39 45.1239 1079.89 47.4614 1079.93 49.8382C1079.97 52.215 1079.55 54.5844 1078.69 56.8107L1055.86 116.252C1055.01 118.48 1053.74 120.522 1052.12 122.261C1050.5 124 1048.56 125.402 1046.42 126.387C1044.28 127.373 1041.98 127.921 1039.64 128.002C1037.31 128.082 1034.99 127.693 1032.82 126.857L972.531 103.7C970.359 102.868 968.376 101.605 966.697 99.9831C965.017 98.361 963.674 96.412 962.743 94.2474C961.813 92.0828 961.313 89.7452 961.274 87.3684C961.234 84.9916 961.655 82.6223 962.513 80.3959L985.344 20.9547C986.198 18.7268 987.471 16.6849 989.091 14.9457C990.712 13.2065 992.648 11.8043 994.788 10.8192C996.928 9.83418 999.231 9.28566 1001.56 9.20506C1003.9 9.12446 1006.22 9.51336 1008.39 10.3495V10.3495Z" fill="#008DD4"/>
<path d="M1003.43 95.288C987.454 89.1522 979.449 71.164 985.585 55.1894C991.721 39.2148 1009.71 31.2104 1025.68 37.3462C1035.99 41.3055 1043.47 50.5451 1045.21 61.4591L1029.89 63.8985C1029.02 58.4357 1025.28 53.8118 1020.12 51.8317C1012.13 48.7637 1003.14 52.7658 1000.07 60.7533C997.003 68.7404 1001 77.7346 1008.99 80.8026C1014.15 82.7829 1020.02 81.8535 1024.33 78.3766L1034.08 90.4474C1025.48 97.3928 1013.74 99.2475 1003.43 95.288Z" fill="white"/>
<path d="M1044.15 75.8354L1040.93 74.5989L1042.16 71.38L1038.94 70.1437L1037.71 73.3626L1034.49 72.1261L1033.25 75.345L1036.47 76.5815L1035.23 79.8007L1038.45 81.0369L1039.69 77.8178L1042.91 79.0543L1044.15 75.8354Z" fill="white"/>
<path d="M1056.22 80.4718L1053 79.2353L1054.23 76.0165L1051.02 74.7802L1049.78 77.9991L1046.56 76.7626L1045.32 79.9815L1048.54 81.218L1047.31 84.4372L1050.52 85.6734L1051.76 82.4542L1054.98 83.6907L1056.22 80.4718Z" fill="white"/>
</g>
<g clip-path="url(#clip6_388_1683)">
<path d="M307.708 704H372.292C374.618 703.998 376.921 704.466 379.071 705.378C381.22 706.29 383.173 707.628 384.818 709.315C386.463 711.002 387.767 713.005 388.657 715.209C389.546 717.414 390.002 719.777 390 722.162V785.838C390.002 788.223 389.546 790.586 388.657 792.791C387.767 794.995 386.463 796.998 384.818 798.685C383.173 800.372 381.22 801.71 379.071 802.622C376.921 803.534 374.618 804.002 372.292 804H307.708C305.382 804.002 303.079 803.534 300.929 802.622C298.78 801.71 296.827 800.372 295.182 798.685C293.537 796.998 292.233 794.995 291.344 792.791C290.454 790.586 289.998 788.223 290 785.838V722.162C289.998 719.777 290.454 717.414 291.344 715.209C292.233 713.005 293.537 711.002 295.182 709.315C296.827 707.628 298.78 706.29 300.929 705.378C303.079 704.466 305.382 703.998 307.708 704V704Z" fill="#2965F1"/>
<path d="M314.478 745.224L315.462 756.204H340.033V745.224H314.478ZM312.5 723L313.498 733.98H340.033V723H312.5V723ZM340.033 773.74L339.985 773.753L327.756 770.451L326.974 761.694H315.952L317.49 778.934L339.982 785.178L340.033 785.164V773.74Z" fill="#EBEBEB"/>
<path d="M365.518 745.224L367.5 723H339.995V733.98H355.467L354.468 745.224H339.995V756.204H353.516L352.241 770.444L339.995 773.75V785.173L362.505 778.934L362.67 777.079L365.251 748.172L365.518 745.224V745.224Z" fill="white"/>
</g>
<g clip-path="url(#clip7_388_1683)">
<path d="M385.004 651.696L479.842 593.859C483.256 591.772 487.058 590.397 491.031 589.811C495.005 589.225 499.071 589.441 502.997 590.445C506.923 591.449 510.632 593.222 513.912 595.664C517.192 598.105 519.978 601.165 522.112 604.671L579.136 698.175C581.276 701.677 582.722 705.555 583.39 709.589C584.059 713.623 583.937 717.732 583.033 721.682C582.128 725.633 580.458 729.346 578.119 732.61C575.779 735.874 572.815 738.625 569.398 740.705L474.559 798.543C471.146 800.629 467.343 802.005 463.37 802.591C459.397 803.176 455.331 802.961 451.405 801.957C447.479 800.952 443.77 799.179 440.49 796.738C437.21 794.297 434.423 791.236 432.29 787.731L375.265 694.226C373.126 690.725 371.68 686.846 371.011 682.812C370.343 678.779 370.464 674.669 371.369 670.719C372.273 666.769 373.943 663.055 376.283 659.791C378.623 656.527 381.586 653.776 385.004 651.696V651.696Z" fill="#F16529"/>
<path d="M436.51 680.684L459.32 666.773L449.487 650.649L409.056 675.306L412.079 679.397L443.14 721.413L479.222 699.408L469.389 683.284L448.053 696.296L436.51 680.684V680.684ZM464.964 719.164L448.778 729.035L466.476 752.975L505.096 742L505.158 741.935L494.927 725.159L494.868 725.221L473.954 731.324L464.964 719.164V719.164Z" fill="#EBEBEB"/>
<path d="M479.167 699.441L499.022 687.333L509.903 709.386L494.88 725.207L505.11 741.982L532.578 712.662L531.159 709.79L509.061 665.03L506.813 660.461L469.334 683.318L479.167 699.441ZM459.24 666.767L459.264 666.807L498.211 643.055L496.324 639.234L492.074 630.611L489.821 626.051L449.431 650.683L459.241 666.768L459.24 666.767Z" fill="white"/>
</g>
</g>
<defs>
<filter id="filter0_d_388_1683" x="236.005" y="497.75" width="192.71" height="108.487" filterUnits="userSpaceOnUse" color-interpolation-filters="sRGB">
<feFlood flood-opacity="0" result="BackgroundImageFix"/>
<feColorMatrix in="SourceAlpha" type="matrix" values="0 0 0 0 0 0 0 0 0 0 0 0 0 0 0 0 0 0 127 0" result="hardAlpha"/>
<feOffset/>
<feGaussianBlur stdDeviation="4.16667"/>
<feColorMatrix type="matrix" values="0 0 0 0 0 0 0 0 0 0 0 0 0 0 0 0 0 0 0.25 0"/>
<feBlend mode="overlay" in2="BackgroundImageFix" result="effect1_dropShadow_388_1683"/>
<feBlend mode="normal" in="SourceGraphic" in2="effect1_dropShadow_388_1683" result="shape"/>
</filter>
<filter id="filter1_d_388_1683" x="330.143" y="434.75" width="98.5778" height="171.488" filterUnits="userSpaceOnUse" color-interpolation-filters="sRGB">
<feFlood flood-opacity="0" result="BackgroundImageFix"/>
<feColorMatrix in="SourceAlpha" type="matrix" values="0 0 0 0 0 0 0 0 0 0 0 0 0 0 0 0 0 0 127 0" result="hardAlpha"/>
<feOffset/>
<feGaussianBlur stdDeviation="4.16667"/>
<feColorMatrix type="matrix" values="0 0 0 0 0 0 0 0 0 0 0 0 0 0 0 0 0 0 0.25 0"/>
<feBlend mode="overlay" in2="BackgroundImageFix" result="effect1_dropShadow_388_1683"/>
<feBlend mode="normal" in="SourceGraphic" in2="effect1_dropShadow_388_1683" result="shape"/>
</filter>
<linearGradient id="paint0_linear_388_1683" x1="776.978" y1="184.595" x2="751.967" y2="262.07" gradientUnits="userSpaceOnUse">
<stop stop-color="white"/>
<stop offset="1" stop-color="white" stop-opacity="0"/>
</linearGradient>
<linearGradient id="paint1_linear_388_1683" x1="308.584" y1="452.855" x2="349.054" y2="607.022" gradientUnits="userSpaceOnUse">
<stop stop-color="white"/>
<stop offset="1" stop-color="white" stop-opacity="0"/>
</linearGradient>
<linearGradient id="paint2_linear_388_1683" x1="552.612" y1="447.678" x2="553.831" y2="529.93" gradientUnits="userSpaceOnUse">
<stop stop-color="#387EB8"/>
<stop offset="1" stop-color="#366994"/>
</linearGradient>
<linearGradient id="paint3_linear_388_1683" x1="552.512" y1="499.155" x2="555.785" y2="585.464" gradientUnits="userSpaceOnUse">
<stop stop-color="#FFE052"/>
<stop offset="1" stop-color="#FFC331"/>
</linearGradient>
<clipPath id="clip0_388_1683">
<rect width="1080" height="808" fill="white"/>
</clipPath>
<clipPath id="clip1_388_1683">
<rect width="100" height="100" fill="white" transform="translate(435.088 326.688) rotate(13.5322)"/>
</clipPath>
<clipPath id="clip2_388_1683">
<rect width="219" height="219" fill="white" transform="translate(584 583)"/>
</clipPath>
<clipPath id="clip3_388_1683">
<rect width="172" height="172" fill="white" transform="translate(551.6 393) rotate(44.055)"/>
</clipPath>
<clipPath id="clip4_388_1683">
<rect width="242" height="242" fill="white" transform="translate(855.634 516) rotate(15)"/>
</clipPath>
<clipPath id="clip5_388_1683">
<rect width="100" height="100" fill="white" transform="translate(991.856 4) rotate(21.0118)"/>
</clipPath>
<clipPath id="clip6_388_1683">
<rect width="100" height="100" fill="white" transform="translate(290 704)"/>
</clipPath>
<clipPath id="clip7_388_1683">
<rect width="172" height="172" fill="white" transform="translate(359 667.555) rotate(-31.3772)"/>
</clipPath>
</defs>
</svg>
