<svg width="500" height="272" viewBox="0 0 500 272" fill="none" xmlns="http://www.w3.org/2000/svg">
<g clip-path="url(#clip0_392_1616)">
<path d="M341.956 103.976C337.143 101.195 331.984 99.4043 326.475 98.6023V144.397H313.482V98.6023C307.973 99.4043 302.788 101.195 297.921 103.976L293.51 94.2715C297.36 91.9723 301.531 90.2348 306.022 89.0584C310.514 87.882 315.14 87.2939 319.898 87.2939C324.711 87.2939 329.363 87.882 333.855 89.0584C338.401 90.2348 342.572 91.9723 346.367 94.2715L341.956 103.976Z" fill="#1E1330"/>
<path d="M186.672 88.2563V144.397H173.758V98.8429H148.413V144.397H135.499V88.2563H186.672Z" fill="#1E1330"/>
<path d="M246.402 148.837C249.983 148.837 253.12 149.549 255.815 150.974C258.549 152.398 260.666 154.496 262.168 157.268C263.669 160.001 264.42 163.312 264.42 167.2V189.952H255.007V166.392C255.007 163.235 254.237 160.848 252.697 159.231C251.157 157.615 249.059 156.806 246.402 156.806C243.707 156.806 241.57 157.615 239.992 159.231C238.452 160.848 237.682 163.235 237.682 166.392V189.952H223.649L223.591 182.329H228.269V167.2C228.269 163.312 229.019 160.001 230.521 157.268C232.022 154.496 234.14 152.398 236.873 150.974C239.607 149.549 242.783 148.837 246.402 148.837Z" fill="#1E1330"/>
<path d="M325.442 190.645C321.246 190.645 317.454 189.74 314.066 187.931C310.716 186.121 308.079 183.638 306.154 180.482C304.267 177.286 303.324 173.706 303.324 169.741C303.324 165.776 304.267 162.215 306.154 159.058C308.079 155.863 310.716 153.361 314.066 151.551C317.454 149.742 321.246 148.837 325.442 148.837C329.639 148.837 333.412 149.742 336.761 151.551C340.111 153.361 342.748 155.863 344.673 159.058C346.598 162.215 347.561 165.776 347.561 169.741C347.561 173.706 346.598 177.286 344.673 180.482C342.748 183.638 340.111 186.121 336.761 187.931C333.412 189.74 329.639 190.645 325.442 190.645ZM325.442 182.676C327.829 182.676 329.985 182.137 331.91 181.059C333.835 179.943 335.337 178.403 336.415 176.439C337.531 174.476 338.09 172.243 338.09 169.741C338.09 167.239 337.531 165.006 336.415 163.043C335.337 161.079 333.835 159.559 331.91 158.481C329.985 157.364 327.829 156.806 325.442 156.806C323.055 156.806 320.899 157.364 318.974 158.481C317.049 159.559 315.529 161.079 314.412 163.043C313.334 165.006 312.795 167.239 312.795 169.741C312.795 172.243 313.334 174.476 314.412 176.439C315.529 178.403 317.049 179.943 318.974 181.059C320.899 182.137 323.055 182.676 325.442 182.676Z" fill="#1E1330"/>
<path d="M302.291 149.53V189.952H293.224V185.043C290.452 188.778 286.371 190.645 280.981 190.645C276.207 190.645 272.473 189.143 269.778 186.141C267.121 183.099 265.793 178.788 265.793 173.206V149.53H275.148V172.917C275.148 176.151 275.899 178.595 277.401 180.251C278.941 181.867 281.02 182.676 283.638 182.676C286.448 182.676 288.7 181.81 290.394 180.077C292.088 178.307 292.935 175.708 292.935 172.282V149.53H302.291Z" fill="#1E1330"/>
<path d="M-72 218.183C-30.1313 229.567 77.8612 268.521 151.781 247.219C244.181 220.592 237.283 9.68479 151.781 23.4576C55.4741 38.971 173.277 273.682 295.354 231.336C369.848 205.495 343.158 14.3147 290.06 56.1759C276.29 67.0329 273.159 92.2745 279.659 120.016M279.659 120.016C281.327 127.136 283.628 134.422 286.547 141.671M279.659 120.016C280.785 124.547 283.737 135.22 286.547 141.671M585.387 82.8066C605.706 85.4266 613.813 111.647 483.683 195.57C380.532 262.093 311.322 203.187 286.547 141.671" stroke="#902AF5" stroke-width="6"/>
<path d="M275.303 87.6949C283.163 87.6949 289.284 89.6198 293.67 93.4694C298.107 97.3191 300.328 102.719 300.328 109.67C300.328 116.247 298.322 121.406 294.312 125.149C290.356 128.892 284.793 130.763 277.629 130.763C275.277 130.763 272.976 130.522 270.731 130.041C268.539 129.56 266.159 128.758 263.592 127.635V144.397H250.759V111.194C250.759 103.655 252.844 97.8539 257.015 93.7902C261.24 89.7266 267.336 87.6949 275.303 87.6949ZM275.383 120.979C279.178 120.979 282.095 120.016 284.125 118.091C286.211 116.166 287.254 113.44 287.254 109.911C287.254 106.328 286.211 103.548 284.125 101.57C282.095 99.5914 279.258 98.6023 275.623 98.6023C271.828 98.6023 268.86 99.6985 266.72 101.891C264.635 104.083 263.592 107.157 263.592 111.114V117.369C265.196 118.492 267.015 119.374 269.046 120.016C271.132 120.658 273.243 120.979 275.383 120.979Z" fill="#1E1330"/>
<path d="M278.511 115.044C279.688 120.177 280.757 125.149 284.767 137.019" stroke="#902AF5" stroke-width="6"/>
<path d="M156.068 148.895C161.189 148.895 165.674 149.8 169.524 151.609C173.374 153.38 176.319 155.844 178.36 159C180.439 162.157 181.478 165.737 181.478 169.741C181.478 173.745 180.439 177.325 178.36 180.482C176.319 183.638 173.374 186.121 169.524 187.931C165.674 189.701 161.189 190.587 156.068 190.587C150.909 190.587 146.405 189.701 142.555 187.931C138.743 186.121 135.798 183.638 133.719 180.482C131.678 177.325 130.658 173.745 130.658 169.741C130.658 165.737 131.678 162.157 133.719 159C135.798 155.844 138.743 153.38 142.555 151.609C146.405 149.8 150.909 148.895 156.068 148.895ZM139.783 169.741C139.783 173.129 140.803 175.958 142.843 178.229C144.922 180.501 147.887 181.944 151.737 182.56V156.979C147.887 157.595 144.922 159.039 142.843 161.31C140.803 163.543 139.783 166.353 139.783 169.741ZM160.399 182.56C164.249 181.944 167.195 180.501 169.235 178.229C171.314 175.958 172.354 173.129 172.354 169.741C172.354 166.353 171.314 163.543 169.235 161.31C167.195 159.039 164.249 157.595 160.399 156.979V182.56Z" fill="#1E1330"/>
<path d="M148.092 159.315L155.15 169.581L163.171 179.526" stroke="#902AF5" stroke-width="6"/>
<path d="M203.847 190.645C199.65 190.645 195.858 189.74 192.47 187.931C189.121 186.121 186.483 183.638 184.558 180.482C182.672 177.286 181.729 173.706 181.729 169.741C181.729 165.776 182.672 162.215 184.558 159.058C186.483 155.863 189.121 153.361 192.47 151.551C195.858 149.742 199.65 148.837 203.847 148.837C208.043 148.837 211.816 149.742 215.166 151.551C218.515 153.361 221.153 155.863 223.078 159.058C225.003 162.215 225.965 165.776 225.965 169.741C225.965 173.706 225.003 177.286 223.078 180.482C221.153 183.638 218.515 186.121 215.166 187.931C211.816 189.74 208.043 190.645 203.847 190.645ZM203.847 182.676C206.234 182.676 208.39 182.137 210.315 181.059C212.24 179.943 213.741 178.403 214.819 176.439C215.936 174.476 216.494 172.243 216.494 169.741C216.494 167.239 215.936 165.006 214.819 163.043C213.741 161.079 212.24 159.559 210.315 158.481C208.39 157.364 206.234 156.806 203.847 156.806C201.46 156.806 199.304 157.364 197.379 158.481C195.454 159.559 193.933 161.079 192.817 163.043C191.739 165.006 191.2 167.239 191.2 169.741C191.2 172.243 191.739 174.476 192.817 176.439C193.933 178.403 195.454 179.943 197.379 181.059C199.304 182.137 201.46 182.676 203.847 182.676Z" fill="#1E1330"/>
<path d="M211.457 175.676C210.601 179.151 206.708 190.658 205.04 194.122" stroke="#902AF5" stroke-width="6"/>
<path d="M218.756 145.36C212.927 145.36 207.661 144.103 202.955 141.59C198.303 139.077 194.64 135.629 191.966 131.244C189.346 126.807 188.036 121.834 188.036 116.327C188.036 110.82 189.346 105.874 191.966 101.49C194.64 97.0519 198.303 93.5763 202.955 91.0634C207.661 88.5505 212.927 87.2939 218.756 87.2939C224.585 87.2939 229.825 88.5505 234.477 91.0634C239.129 93.5763 242.792 97.0519 245.465 101.49C248.139 105.874 249.476 110.82 249.476 116.327C249.476 121.834 248.139 126.807 245.465 131.244C242.792 135.629 239.129 139.077 234.477 141.59C229.825 144.103 224.585 145.36 218.756 145.36ZM218.756 134.292C222.071 134.292 225.066 133.543 227.739 132.046C230.413 130.496 232.498 128.357 233.996 125.63C235.546 122.903 236.322 119.802 236.322 116.327C236.322 112.852 235.546 109.75 233.996 107.023C232.498 104.297 230.413 102.185 227.739 100.688C225.066 99.1371 222.071 98.3617 218.756 98.3617C215.441 98.3617 212.446 99.1371 209.773 100.688C207.099 102.185 204.987 104.297 203.436 107.023C201.939 109.75 201.19 112.852 201.19 116.327C201.19 119.802 201.939 122.903 203.436 125.63C204.987 128.357 207.099 130.496 209.773 132.046C212.446 133.543 215.441 134.292 218.756 134.292Z" fill="#1E1330"/>
<path d="M214.825 86.0107C215.788 90.3416 216.75 96.5973 217.231 100.928" stroke="#902AF5" stroke-width="6"/>
<path d="M156.755 249.942C159.413 249.942 161.567 247.788 161.567 245.13C161.567 242.473 159.413 240.318 156.755 240.318C154.097 240.318 151.942 242.473 151.942 245.13C151.942 247.788 154.097 249.942 156.755 249.942Z" fill="#CAAAFF" stroke="#902AF5" stroke-width="3"/>
<path d="M389.754 228.769C392.412 228.769 394.566 226.615 394.566 223.957C394.566 221.299 392.412 219.145 389.754 219.145C387.096 219.145 384.941 221.299 384.941 223.957C384.941 226.615 387.096 228.769 389.754 228.769Z" fill="#CAAAFF" stroke="#902AF5" stroke-width="3"/>
<path d="M291.184 237.11C293.841 237.11 295.996 234.956 295.996 232.298C295.996 229.64 293.841 227.486 291.184 227.486C288.526 227.486 286.371 229.64 286.371 232.298C286.371 234.956 288.526 237.11 291.184 237.11Z" fill="#CAAAFF" stroke="#902AF5" stroke-width="3"/>
<path d="M155.792 27.6242C158.45 27.6242 160.604 25.4697 160.604 22.8121C160.604 20.1544 158.45 18 155.792 18C153.134 18 150.979 20.1544 150.979 22.8121C150.979 25.4697 153.134 27.6242 155.792 27.6242Z" fill="#CAAAFF" stroke="#902AF5" stroke-width="3"/>
<path d="M301.13 55.855C303.788 55.855 305.942 53.7006 305.942 51.0429C305.942 48.3853 303.788 46.2308 301.13 46.2308C298.472 46.2308 296.317 48.3853 296.317 51.0429C296.317 53.7006 298.472 55.855 301.13 55.855Z" fill="#CAAAFF" stroke="#902AF5" stroke-width="3"/>
</g>
<defs>
<clipPath id="clip0_392_1616">
<rect width="500" height="272" fill="white"/>
</clipPath>
</defs>
</svg>
