<svg width="500" height="503" viewBox="0 0 500 503" fill="none" xmlns="http://www.w3.org/2000/svg">
<g clip-path="url(#clip0_392_1616)">
<g clip-path="url(#clip1_392_1616)">
<path d="M521.332 91.7775C438.545 168.171 220.148 332.262 183.875 214.558C151.138 108.324 314.436 110.672 304.728 145.765C296.342 176.073 215.105 89.7166 283.632 49.3126C352.159 8.90854 390.657 69.0927 394.226 106.806C397.453 140.915 374.485 292.136 142.377 367.267C-43.31 427.372 -139.56 502.38 -164.475 532.371" stroke="#902AF5" stroke-width="6"/>
<path d="M140.074 373.461C142.711 372.179 143.808 368.997 142.523 366.354C141.239 363.71 138.059 362.606 135.421 363.888C132.784 365.17 131.687 368.352 132.972 370.996C134.256 373.639 137.436 374.743 140.074 373.461Z" fill="#CAAAFF" stroke="#902AF5" stroke-width="3"/>
<path d="M190.208 227.993C192.845 226.711 193.942 223.529 192.657 220.886C191.372 218.242 188.193 217.138 185.555 218.42C182.917 219.702 181.821 222.884 183.106 225.528C184.39 228.171 187.57 229.275 190.208 227.993Z" fill="#CAAAFF" stroke="#902AF5" stroke-width="3"/>
<path d="M292.468 50.4865C295.106 49.2046 296.203 46.0225 294.918 43.3789C293.633 40.7354 290.453 39.6315 287.816 40.9134C285.178 42.1952 284.082 45.3774 285.366 48.0209C286.651 50.6645 289.831 51.7683 292.468 50.4865Z" fill="#CAAAFF" stroke="#902AF5" stroke-width="3"/>
<path d="M395.918 124.864C398.555 123.582 399.652 120.4 398.367 117.756C397.082 115.113 393.903 114.009 391.265 115.291C388.627 116.573 387.531 119.755 388.815 122.398C390.1 125.042 393.28 126.146 395.918 124.864Z" fill="#CAAAFF" stroke="#902AF5" stroke-width="3"/>
</g>
<path d="M183.291 501.58C178.97 503.054 174.737 503.463 170.59 502.804C166.469 502.092 162.834 500.424 159.685 497.802C156.563 495.126 154.285 491.688 152.852 487.489C151.418 483.289 151.126 479.197 151.974 475.21C152.849 471.169 154.706 467.628 157.545 464.585C160.41 461.488 164.023 459.196 168.384 457.707C172.059 456.453 175.59 455.969 178.979 456.255C182.408 456.527 185.546 457.53 188.391 459.264L184.077 467.228C180.08 464.896 175.961 464.453 171.722 465.9C169.097 466.796 166.955 468.181 165.295 470.055C163.622 471.888 162.551 474.035 162.083 476.494C161.655 478.939 161.889 481.474 162.785 484.099C163.681 486.723 165.045 488.872 166.879 490.546C168.753 492.205 170.919 493.269 173.378 493.737C175.824 494.165 178.358 493.931 180.983 493.035C185.223 491.588 188.204 488.699 189.927 484.369L198.211 488.034C197.033 491.186 195.17 493.918 192.623 496.23C190.076 498.543 186.965 500.326 183.291 501.58ZM231.114 437.108L245.586 479.506L235.834 482.834L224.092 448.431L204.952 454.964L216.694 489.367L206.943 492.696L192.471 450.297L231.114 437.108ZM260.213 426.364C264.13 425.027 267.804 424.63 271.235 425.172C274.666 425.714 277.699 427.204 280.334 429.64C282.969 432.077 285.011 435.415 286.458 439.655L294.375 462.853L284.563 466.202L281.09 456.027L261.708 462.642L265.181 472.818L255.49 476.125L247.572 452.928C246.125 448.688 245.699 444.798 246.295 441.259C246.89 437.719 248.379 434.686 250.763 432.16C253.146 429.633 256.297 427.701 260.213 426.364ZM278.403 448.153L276.335 442.096C275.136 438.583 273.365 436.234 271.023 435.05C268.666 433.826 265.994 433.724 263.006 434.743C259.977 435.777 257.905 437.499 256.789 439.908C255.699 442.264 255.754 445.198 256.953 448.711L259.021 454.768L278.403 448.153ZM324.599 453.349C320.279 454.824 316.045 455.232 311.898 454.573C307.777 453.861 304.143 452.194 300.993 449.572C297.871 446.895 295.593 443.458 294.16 439.258C292.726 435.059 292.434 430.966 293.282 426.979C294.157 422.939 296.014 419.397 298.853 416.354C301.718 413.257 305.331 410.965 309.692 409.476C313.367 408.222 316.898 407.738 320.287 408.024C323.716 408.296 326.854 409.299 329.7 411.033L325.385 418.998C321.388 416.665 317.27 416.222 313.03 417.669C310.405 418.565 308.263 419.95 306.603 421.824C304.93 423.658 303.859 425.804 303.391 428.263C302.963 430.708 303.197 433.243 304.093 435.868C304.989 438.492 306.354 440.641 308.187 442.315C310.061 443.975 312.227 445.038 314.686 445.507C317.132 445.934 319.667 445.7 322.291 444.804C326.531 443.357 329.513 440.469 331.236 436.139L339.519 439.803C338.341 442.956 336.479 445.688 333.931 448C331.384 450.312 328.274 452.095 324.599 453.349ZM371.453 389.208L385.925 431.606L376.415 434.852L374.658 429.703C373.088 434.612 369.476 438.032 363.823 439.961C358.816 441.67 354.361 441.432 350.46 439.247C346.585 437.008 343.648 432.961 341.65 427.106L333.174 402.273L342.986 398.924L351.359 423.455C352.516 426.846 354.179 429.142 356.346 430.341C358.54 431.485 361.01 431.589 363.756 430.652C366.704 429.646 368.756 427.931 369.912 425.507C371.055 423.044 371.013 420.015 369.787 416.421L361.641 392.557L371.453 389.208ZM381.75 385.693L415.971 374.013L418.638 381.826L394.168 390.178L397.145 398.9L408.896 394.89C414.024 393.139 418.286 392.879 421.681 394.11C425.117 395.327 427.524 397.954 428.902 401.992C430.349 406.232 429.979 410.033 427.79 413.394C425.601 416.756 421.781 419.368 416.33 421.228L396.221 428.092L381.75 385.693ZM413.304 414.146C415.808 413.291 417.56 412.152 418.562 410.728C419.55 409.264 419.72 407.583 419.072 405.685C417.804 401.97 414.586 400.995 409.417 402.759L399.605 406.108L403.492 417.495L413.304 414.146ZM461.416 406.651C457.015 408.153 452.714 408.562 448.512 407.877C444.352 407.178 440.697 405.518 437.548 402.896C434.425 400.22 432.154 396.802 430.735 392.643C429.315 388.484 429.029 384.411 429.878 380.425C430.753 376.384 432.623 372.815 435.488 369.718C438.394 366.608 442.047 364.301 446.449 362.799C450.85 361.297 455.131 360.895 459.292 361.594C463.453 362.293 467.115 363.973 470.277 366.636C473.427 369.258 475.711 372.648 477.13 376.807C478.55 380.966 478.822 385.066 477.947 389.107C477.058 393.107 475.181 396.655 472.316 399.752C469.451 402.849 465.818 405.149 461.416 406.651ZM458.563 398.292C461.067 397.438 463.135 396.101 464.768 394.281C466.387 392.421 467.411 390.268 467.839 387.823C468.307 385.364 468.093 382.822 467.197 380.198C466.301 377.573 464.916 375.431 463.043 373.771C461.209 372.098 459.09 371.04 456.685 370.599C454.266 370.117 451.805 370.303 449.302 371.158C446.798 372.012 444.737 373.369 443.117 375.229C441.484 377.049 440.434 379.189 439.966 381.648C439.538 384.093 439.772 386.628 440.668 389.252C441.564 391.877 442.928 394.026 444.762 395.7C446.636 397.359 448.782 398.43 451.201 398.912C453.606 399.353 456.06 399.147 458.563 398.292ZM475.334 353.752L486.6 349.906L494.17 378.227L486.659 380.791L475.334 353.752ZM495.603 394.712C493.948 395.277 492.376 395.228 490.887 394.564C489.424 393.845 488.431 392.719 487.907 391.185C487.384 389.65 487.495 388.192 488.24 386.811C488.972 385.389 490.186 384.388 491.882 383.809C493.578 383.231 495.15 383.28 496.599 383.958C498.034 384.595 499.013 385.681 499.537 387.215C500.06 388.75 499.943 390.255 499.185 391.731C498.453 393.153 497.259 394.147 495.603 394.712Z" fill="#1E1330"/>
</g>
<defs>
<clipPath id="clip0_392_1616">
<rect width="500" height="503" fill="white"/>
</clipPath>
<clipPath id="clip1_392_1616">
<rect width="811" height="248" fill="white" transform="translate(-273 311.493) rotate(-25.9194)"/>
</clipPath>
</defs>
</svg>
