<svg width="1728" height="917" viewBox="0 0 1728 917" fill="none" xmlns="http://www.w3.org/2000/svg">
<rect width="600" height="800" rx="50" fill="#1E1330"/>
<circle cx="475" cy="615" r="25" fill="white"/>
<circle cx="475" cy="715" r="25" fill="white"/>
<circle cx="525" cy="665" r="25" fill="white"/>
<circle cx="425" cy="665" r="25" fill="white"/>
<rect x="100" y="640" width="50" height="50" fill="white"/>
<circle cx="125" cy="665" r="20" fill="#1E1330"/>
<path d="M100 615C100 601.193 111.193 590 125 590C138.807 590 150 601.193 150 615V640H100V615Z" fill="white"/>
<path fill-rule="evenodd" clip-rule="evenodd" d="M128.115 604.392C126.18 602.536 123.127 602.536 121.192 604.392L109.549 615.561C106.298 618.679 108.506 624.169 113.011 624.169H117.702V628.408C117.702 631.17 119.941 633.408 122.702 633.408H126.604C129.365 633.408 131.604 631.17 131.604 628.408V624.169H136.297C140.801 624.169 143.009 618.679 139.758 615.561L128.115 604.392Z" fill="#1E1330"/>
<path d="M175 640C188.807 640 200 651.193 200 665C200 678.807 188.807 690 175 690L150 690L150 640L175 640Z" fill="white"/>
<path fill-rule="evenodd" clip-rule="evenodd" d="M185.608 668.114C187.464 666.18 187.464 663.126 185.608 661.192L174.439 649.549C171.321 646.298 165.831 648.505 165.831 653.01L165.831 657.702L161.592 657.702C158.831 657.702 156.592 659.941 156.592 662.702L156.592 666.604C156.592 669.365 158.831 671.604 161.592 671.604L165.831 671.604L165.831 676.296C165.831 680.801 171.321 683.008 174.439 679.757L185.608 668.114Z" fill="#1E1330"/>
<path d="M150 715C150 728.807 138.807 740 125 740C111.193 740 100 728.807 100 715L100 690L150 690L150 715Z" fill="white"/>
<path fill-rule="evenodd" clip-rule="evenodd" d="M121.885 725.608C123.82 727.464 126.873 727.464 128.808 725.608L140.451 714.439C143.702 711.321 141.494 705.831 136.989 705.831L132.298 705.831L132.298 701.592C132.298 698.83 130.059 696.592 127.298 696.592L123.396 696.592C120.635 696.592 118.396 698.83 118.396 701.592L118.396 705.831L113.703 705.831C109.199 705.831 106.991 711.321 110.242 714.439L121.885 725.608Z" fill="#1E1330"/>
<path d="M75 690C61.1929 690 50 678.807 50 665C50 651.193 61.1929 640 75 640L100 640L100 690L75 690Z" fill="white"/>
<path fill-rule="evenodd" clip-rule="evenodd" d="M64.3918 661.886C62.5361 663.82 62.5361 666.874 64.3918 668.808L75.5608 680.451C78.6793 683.702 84.169 681.495 84.169 676.99L84.169 672.298L88.4081 672.298C91.1695 672.298 93.4081 670.059 93.4081 667.298L93.4081 663.396C93.4081 660.635 91.1695 658.396 88.4081 658.396L84.169 658.396L84.169 653.704C84.169 649.199 78.6793 646.992 75.5608 650.243L64.3918 661.886Z" fill="#1E1330"/>
<path d="M480.094 709.719C480.094 710.445 480.012 711.195 479.848 711.969C479.695 712.742 479.449 713.486 479.109 714.201C478.781 714.916 478.359 715.572 477.844 716.17C477.328 716.768 476.713 717.254 475.998 717.629C476.689 717.934 477.234 718.314 477.633 718.771C478.043 719.229 478.354 719.703 478.564 720.195C478.775 720.676 478.91 721.139 478.969 721.584C479.027 722.018 479.057 722.369 479.057 722.639C479.057 723.529 478.922 724.297 478.652 724.941C478.395 725.574 478.061 726.113 477.65 726.559C477.24 726.992 476.777 727.344 476.262 727.613C475.758 727.871 475.254 728.07 474.75 728.211C474.258 728.352 473.795 728.439 473.361 728.475C472.928 728.521 472.582 728.545 472.324 728.545C471.996 728.533 471.662 728.504 471.322 728.457C471.029 728.41 470.713 728.34 470.373 728.246C470.045 728.164 469.746 728.035 469.477 727.859C469.547 725.633 469.582 723.412 469.582 721.197C469.582 718.186 469.512 715.209 469.371 712.268C469.242 709.326 469.049 706.361 468.791 703.373C469.33 703.209 469.863 703.08 470.391 702.986C470.93 702.893 471.416 702.822 471.85 702.775C472.354 702.729 472.834 702.699 473.291 702.688C473.654 702.688 474.07 702.734 474.539 702.828C475.02 702.91 475.512 703.062 476.016 703.285C476.52 703.496 477.012 703.777 477.492 704.129C477.984 704.469 478.424 704.902 478.811 705.43C479.197 705.945 479.508 706.561 479.742 707.275C479.977 707.979 480.094 708.793 480.094 709.719ZM476.684 710.51C476.684 710.521 476.684 710.422 476.684 710.211C476.684 709.988 476.654 709.713 476.596 709.385C476.549 709.045 476.461 708.676 476.332 708.277C476.215 707.879 476.033 707.504 475.787 707.152C475.541 706.801 475.219 706.496 474.82 706.238C474.434 705.969 473.947 705.805 473.361 705.746C473.291 707.68 473.221 709.607 473.15 711.529C473.092 713.451 473.045 715.379 473.01 717.312C473.432 717.16 473.807 716.943 474.135 716.662C474.475 716.381 474.768 716.07 475.014 715.73C475.271 715.379 475.488 715.01 475.664 714.623C475.84 714.225 475.992 713.832 476.121 713.445C476.414 712.543 476.602 711.564 476.684 710.51ZM475.699 722.164C475.676 721.59 475.559 721.068 475.348 720.6C475.254 720.4 475.143 720.201 475.014 720.002C474.885 719.791 474.721 719.604 474.521 719.439C474.334 719.264 474.111 719.117 473.854 719C473.596 718.871 473.303 718.777 472.975 718.719C472.939 719.949 472.91 721.174 472.887 722.393C472.863 723.6 472.852 724.818 472.852 726.049C473.203 725.92 473.514 725.768 473.783 725.592C474.053 725.404 474.287 725.211 474.486 725.012C474.686 724.801 474.85 724.584 474.979 724.361C475.119 724.139 475.236 723.922 475.33 723.711C475.541 723.219 475.664 722.703 475.699 722.164Z" fill="#EE7200"/>
<path d="M526.35 678.141C526.291 677.332 526.232 676.518 526.174 675.697C526.127 674.877 526.068 674.051 525.998 673.219C525.482 673.184 524.984 673.148 524.504 673.113C524.023 673.078 523.537 673.061 523.045 673.061H522.816C522.758 673.904 522.705 674.736 522.658 675.557C522.611 676.377 522.57 677.191 522.535 678L518.141 677.93C518.867 673.746 519.523 669.574 520.109 665.414C520.695 661.254 521.193 657.059 521.604 652.828L526.895 652.916C527.34 657.1 527.873 661.26 528.494 665.396C529.127 669.521 529.865 673.676 530.709 677.859L526.35 678.141ZM524.293 657.258C524.059 659.414 523.836 661.564 523.625 663.709C523.414 665.854 523.221 668.016 523.045 670.195C523.291 670.219 523.543 670.23 523.801 670.23C524.059 670.23 524.322 670.23 524.592 670.23H525.734C525.535 668.051 525.312 665.889 525.066 663.744C524.82 661.6 524.562 659.438 524.293 657.258Z" fill="#F23C52"/>
<path d="M480.533 603.127C479.607 605.201 478.758 607.293 477.984 609.402C477.223 611.512 476.508 613.656 475.84 615.836C476.496 617.875 477.199 619.873 477.949 621.83C478.711 623.787 479.537 625.738 480.428 627.684L476.244 628.105L474.188 621.443C473.883 622.568 473.59 623.693 473.309 624.818C473.039 625.943 472.77 627.074 472.5 628.211L468.07 627.719C468.867 625.715 469.617 623.723 470.32 621.742C471.035 619.75 471.727 617.723 472.395 615.66C471.727 613.574 471.035 611.512 470.32 609.473C469.617 607.434 468.879 605.377 468.105 603.303L472.184 602.758C472.488 604.012 472.793 605.248 473.098 606.467C473.414 607.686 473.742 608.898 474.082 610.105C474.445 608.898 474.797 607.691 475.137 606.484C475.488 605.277 475.834 604.047 476.174 602.793L480.533 603.127Z" fill="#2C27E9"/>
<path d="M430.779 652.793C429.842 655.77 428.963 658.775 428.143 661.811C427.334 664.834 426.566 667.758 425.84 670.582V671.672C425.84 672.258 425.846 672.814 425.857 673.342C425.881 673.857 425.904 674.373 425.928 674.889C425.951 675.393 425.98 675.914 426.016 676.453C426.062 676.98 426.115 677.543 426.174 678.141H421.955C422.049 677.414 422.131 676.74 422.201 676.119C422.271 675.486 422.324 674.865 422.359 674.256C422.406 673.646 422.441 673.02 422.465 672.375C422.488 671.73 422.5 671.027 422.5 670.266C422.172 668.918 421.826 667.518 421.463 666.064C421.111 664.611 420.748 663.152 420.373 661.688C419.998 660.223 419.623 658.77 419.248 657.328C418.873 655.875 418.504 654.475 418.141 653.127L422.535 652.758C422.582 653.719 422.658 654.738 422.764 655.816C422.881 656.883 423.016 657.973 423.168 659.086C423.32 660.199 423.49 661.324 423.678 662.461C423.865 663.598 424.059 664.711 424.258 665.801C424.48 664.688 424.697 663.557 424.908 662.408C425.131 661.248 425.336 660.105 425.523 658.98C425.711 657.855 425.881 656.76 426.033 655.693C426.197 654.627 426.338 653.625 426.455 652.688L430.779 652.793Z" fill="#3BB653"/>
<rect x="285" y="800" width="30" height="50" fill="#1E1330"/>
<path d="M300.015 850.025C299.848 855.859 301.398 868.414 307.015 874.025C317 884 370.015 902.525 477.015 850.025C562.615 808.025 692.015 838.525 746.015 859.025C837.015 893.572 1035.21 974.025 1202.01 838.025" stroke="#1E1330" stroke-width="5"/>
<path d="M1209.5 825C1232.67 801 1278.5 741.1 1276.5 693.5C1274 634 1210 564.5 1093 594.5C999.4 618.5 933.333 688.833 912 721" stroke="#1E1330" stroke-width="5"/>
<path d="M1214 834.5C1236.83 806.333 1295.45 757.258 1348.5 756.5C1418.5 755.5 1526 776 1584.5 666.5C1597.67 633.5 1634.2 567.2 1675 566" stroke="#1E1330" stroke-width="5"/>
<ellipse cx="867.934" cy="732.693" rx="9" ry="7.91617" transform="rotate(35.9722 867.934 732.693)" fill="white"/>
<ellipse cx="1714.35" cy="587.375" rx="9" ry="7.91617" transform="rotate(87.2036 1714.35 587.375)" fill="white"/>
<path d="M914.463 729.001L902.597 743.195L887.525 761.225C885.754 763.344 882.601 763.626 880.482 761.854L862.836 747.103C860.717 745.332 860.436 742.178 862.207 740.06L874.072 725.866C875.843 723.747 878.996 723.466 881.115 725.237L885.718 729.085C887.837 730.856 890.99 730.574 892.761 728.456L901.42 718.098C903.191 715.98 906.344 715.698 908.463 717.469L913.834 721.958C915.952 723.73 916.234 726.883 914.463 729.001Z" fill="#1E1330"/>
<path d="M1678.99 556.593L1697.46 555.572L1720.93 554.276C1723.69 554.123 1726.04 556.235 1726.2 558.992L1727.47 581.957C1727.62 584.715 1725.51 587.073 1722.75 587.226L1704.28 588.246C1701.52 588.399 1699.16 586.287 1699.01 583.53L1698.68 577.539C1698.53 574.782 1696.17 572.67 1693.41 572.822L1679.93 573.567C1677.17 573.719 1674.81 571.608 1674.66 568.85L1674.28 561.861C1674.12 559.104 1676.24 556.745 1678.99 556.593Z" fill="#1E1330"/>
<rect x="1206.15" y="821.027" width="20" height="15" transform="rotate(48.5812 1206.15 821.027)" fill="white"/>
</svg>
