<svg width="1920" height="810" viewBox="0 0 1920 810" fill="none" xmlns="http://www.w3.org/2000/svg">
<mask id="mask0_322_1871" style="mask-type:alpha" maskUnits="userSpaceOnUse" x="0" y="0" width="1920" height="810">
<rect width="1920" height="810" fill="#D9D9D9"/>
</mask>
<g mask="url(#mask0_322_1871)">
<path d="M1238.25 304C1223.25 295.333 1207.17 289.75 1190 287.25V430H1149.5V287.25C1132.33 289.75 1116.17 295.333 1101 304L1087.25 273.75C1099.25 266.583 1112.25 261.167 1126.25 257.5C1140.25 253.833 1154.67 252 1169.5 252C1184.5 252 1199 253.833 1213 257.5C1227.17 261.167 1240.17 266.583 1252 273.75L1238.25 304Z" fill="#1E1330"/>
<path d="M754.25 255V430H714V288H635V430H594.75V255H754.25Z" fill="#1E1330"/>
<path d="M940.42 443.84C951.58 443.84 961.36 446.06 969.76 450.5C978.28 454.94 984.88 461.48 989.56 470.12C994.24 478.64 996.58 488.96 996.58 501.08V572H967.24V498.56C967.24 488.72 964.84 481.28 960.04 476.24C955.24 471.2 948.7 468.68 940.42 468.68C932.02 468.68 925.36 471.2 920.44 476.24C915.64 481.28 913.24 488.72 913.24 498.56V572H869.5L869.32 548.24H883.9V501.08C883.9 488.96 886.24 478.64 890.92 470.12C895.6 461.48 902.2 454.94 910.72 450.5C919.24 446.06 929.14 443.84 940.42 443.84Z" fill="#1E1330"/>
<path d="M1186.78 574.16C1173.7 574.16 1161.88 571.34 1151.32 565.7C1140.88 560.06 1132.66 552.32 1126.66 542.48C1120.78 532.52 1117.84 521.36 1117.84 509C1117.84 496.64 1120.78 485.54 1126.66 475.7C1132.66 465.74 1140.88 457.94 1151.32 452.3C1161.88 446.66 1173.7 443.84 1186.78 443.84C1199.86 443.84 1211.62 446.66 1222.06 452.3C1232.5 457.94 1240.72 465.74 1246.72 475.7C1252.72 485.54 1255.72 496.64 1255.72 509C1255.72 521.36 1252.72 532.52 1246.72 542.48C1240.72 552.32 1232.5 560.06 1222.06 565.7C1211.62 571.34 1199.86 574.16 1186.78 574.16ZM1186.78 549.32C1194.22 549.32 1200.94 547.64 1206.94 544.28C1212.94 540.8 1217.62 536 1220.98 529.88C1224.46 523.76 1226.2 516.8 1226.2 509C1226.2 501.2 1224.46 494.24 1220.98 488.12C1217.62 482 1212.94 477.26 1206.94 473.9C1200.94 470.42 1194.22 468.68 1186.78 468.68C1179.34 468.68 1172.62 470.42 1166.62 473.9C1160.62 477.26 1155.88 482 1152.4 488.12C1149.04 494.24 1147.36 501.2 1147.36 509C1147.36 516.8 1149.04 523.76 1152.4 529.88C1155.88 536 1160.62 540.8 1166.62 544.28C1172.62 547.64 1179.34 549.32 1186.78 549.32Z" fill="#1E1330"/>
<path d="M1114.62 446V572H1086.36V556.7C1077.72 568.34 1065 574.16 1048.2 574.16C1033.32 574.16 1021.68 569.48 1013.28 560.12C1005 550.64 1000.86 537.2 1000.86 519.8V446H1030.02V518.9C1030.02 528.98 1032.36 536.6 1037.04 541.76C1041.84 546.8 1048.32 549.32 1056.48 549.32C1065.24 549.32 1072.26 546.62 1077.54 541.22C1082.82 535.7 1085.46 527.6 1085.46 516.92V446H1114.62Z" fill="#1E1330"/>
<path d="M-52 660C78.5 695.488 415.1 816.912 645.5 750.512C933.5 667.512 912 10.08 645.5 53.0121C345.322 101.37 712.5 833 1093 701C1325.19 620.451 1242 24.5121 1076.5 155C1033.58 188.843 1023.82 267.525 1044.08 354M1997 238.012C2060.33 246.179 2085.6 327.912 1680 589.512C1358.49 796.877 1142.77 613.257 1065.55 421.5M1044.08 354C1049.28 376.195 1056.45 398.904 1065.55 421.5M1044.08 354C1047.59 368.122 1056.79 401.392 1065.55 421.5" stroke="#902AF5" stroke-width="10"/>
<path d="M1030.5 253.25C1055 253.25 1074.08 259.25 1087.75 271.25C1101.58 283.25 1108.5 300.083 1108.5 321.75C1108.5 342.25 1102.25 358.333 1089.75 370C1077.42 381.667 1060.08 387.5 1037.75 387.5C1030.42 387.5 1023.25 386.75 1016.25 385.25C1009.42 383.75 1002 381.25 994 377.75V430H954V326.5C954 303 960.5 284.917 973.5 272.25C986.667 259.583 1005.67 253.25 1030.5 253.25ZM1030.75 357C1042.58 357 1051.67 354 1058 348C1064.5 342 1067.75 333.5 1067.75 322.5C1067.75 311.333 1064.5 302.667 1058 296.5C1051.67 290.333 1042.83 287.25 1031.5 287.25C1019.67 287.25 1010.42 290.667 1003.75 297.5C997.25 304.333 994 313.917 994 326.25V345.75C999 349.25 1004.67 352 1011 354C1017.5 356 1024.08 357 1030.75 357Z" fill="#1E1330"/>
<path d="M1040.5 338.5C1044.17 354.5 1047.5 370 1060 407" stroke="#902AF5" stroke-width="10"/>
<path d="M658.86 444.02C674.82 444.02 688.8 446.84 700.8 452.48C712.8 458 721.98 465.68 728.34 475.52C734.82 485.36 738.06 496.52 738.06 509C738.06 521.48 734.82 532.64 728.34 542.48C721.98 552.32 712.8 560.06 700.8 565.7C688.8 571.22 674.82 573.98 658.86 573.98C642.78 573.98 628.74 571.22 616.74 565.7C604.86 560.06 595.68 552.32 589.2 542.48C582.84 532.64 579.66 521.48 579.66 509C579.66 496.52 582.84 485.36 589.2 475.52C595.68 465.68 604.86 458 616.74 452.48C628.74 446.84 642.78 444.02 658.86 444.02ZM608.1 509C608.1 519.56 611.28 528.38 617.64 535.46C624.12 542.54 633.36 547.04 645.36 548.96V469.22C633.36 471.14 624.12 475.64 617.64 482.72C611.28 489.68 608.1 498.44 608.1 509ZM672.36 548.96C684.36 547.04 693.54 542.54 699.9 535.46C706.38 528.38 709.62 519.56 709.62 509C709.62 498.44 706.38 489.68 699.9 482.72C693.54 475.64 684.36 471.14 672.36 469.22V548.96Z" fill="#1E1330"/>
<path d="M634 476.5L656 508.5L681 539.5" stroke="#902AF5" stroke-width="10"/>
<path d="M807.78 574.16C794.7 574.16 782.88 571.34 772.32 565.7C761.88 560.06 753.66 552.32 747.66 542.48C741.78 532.52 738.84 521.36 738.84 509C738.84 496.64 741.78 485.54 747.66 475.7C753.66 465.74 761.88 457.94 772.32 452.3C782.88 446.66 794.7 443.84 807.78 443.84C820.86 443.84 832.62 446.66 843.06 452.3C853.5 457.94 861.72 465.74 867.72 475.7C873.72 485.54 876.72 496.64 876.72 509C876.72 521.36 873.72 532.52 867.72 542.48C861.72 552.32 853.5 560.06 843.06 565.7C832.62 571.34 820.86 574.16 807.78 574.16ZM807.78 549.32C815.22 549.32 821.94 547.64 827.94 544.28C833.94 540.8 838.62 536 841.98 529.88C845.46 523.76 847.2 516.8 847.2 509C847.2 501.2 845.46 494.24 841.98 488.12C838.62 482 833.94 477.26 827.94 473.9C821.94 470.42 815.22 468.68 807.78 468.68C800.34 468.68 793.62 470.42 787.62 473.9C781.62 477.26 776.88 482 773.4 488.12C770.04 494.24 768.36 501.2 768.36 509C768.36 516.8 770.04 523.76 773.4 529.88C776.88 536 781.62 540.8 787.62 544.28C793.62 547.64 800.34 549.32 807.78 549.32Z" fill="#1E1330"/>
<path d="M831.5 527.5C828.833 538.333 816.7 574.2 811.5 585" stroke="#902AF5" stroke-width="10"/>
<path d="M854.25 433C836.083 433 819.667 429.083 805 421.25C790.5 413.417 779.083 402.667 770.75 389C762.583 375.167 758.5 359.667 758.5 342.5C758.5 325.333 762.583 309.917 770.75 296.25C779.083 282.417 790.5 271.583 805 263.75C819.667 255.917 836.083 252 854.25 252C872.417 252 888.75 255.917 903.25 263.75C917.75 271.583 929.167 282.417 937.5 296.25C945.833 309.917 950 325.333 950 342.5C950 359.667 945.833 375.167 937.5 389C929.167 402.667 917.75 413.417 903.25 421.25C888.75 429.083 872.417 433 854.25 433ZM854.25 398.5C864.583 398.5 873.917 396.167 882.25 391.5C890.583 386.667 897.083 380 901.75 371.5C906.583 363 909 353.333 909 342.5C909 331.667 906.583 322 901.75 313.5C897.083 305 890.583 298.417 882.25 293.75C873.917 288.917 864.583 286.5 854.25 286.5C843.917 286.5 834.583 288.917 826.25 293.75C817.917 298.417 811.333 305 806.5 313.5C801.833 322 799.5 331.667 799.5 342.5C799.5 353.333 801.833 363 806.5 371.5C811.333 380 817.917 386.667 826.25 391.5C834.583 396.167 843.917 398.5 854.25 398.5Z" fill="#1E1330"/>
<path d="M842 248C845 261.5 848 281 849.5 294.5" stroke="#902AF5" stroke-width="10"/>
<circle cx="661" cy="744" r="15" fill="#CAAAFF" stroke="#902AF5" stroke-width="10"/>
<circle cx="1080" cy="704" r="15" fill="#CAAAFF" stroke="#902AF5" stroke-width="10"/>
<circle cx="658" cy="51" r="15" fill="#CAAAFF" stroke="#902AF5" stroke-width="10"/>
<circle cx="1111" cy="139" r="15" fill="#CAAAFF" stroke="#902AF5" stroke-width="10"/>
<circle cx="1388" cy="678" r="15" fill="#CAAAFF" stroke="#902AF5" stroke-width="10"/>
</g>
</svg>
