<svg width="1920" height="752" viewBox="0 0 1920 752" fill="none" xmlns="http://www.w3.org/2000/svg">
<path d="M1283.25 273C1268.25 264.333 1252.17 258.75 1235 256.25V399H1194.5V256.25C1177.33 258.75 1161.17 264.333 1146 273L1132.25 242.75C1144.25 235.583 1157.25 230.167 1171.25 226.5C1185.25 222.833 1199.67 221 1214.5 221C1229.5 221 1244 222.833 1258 226.5C1272.17 230.167 1285.17 235.583 1297 242.75L1283.25 273Z" fill="#1E1330"/>
<path d="M799.25 224V399H759V257H680V399H639.75V224H799.25Z" fill="#1E1330"/>
<path d="M985.42 412.84C996.58 412.84 1006.36 415.06 1014.76 419.5C1023.28 423.94 1029.88 430.48 1034.56 439.12C1039.24 447.64 1041.58 457.96 1041.58 470.08V541H1012.24V467.56C1012.24 457.72 1009.84 450.28 1005.04 445.24C1000.24 440.2 993.7 437.68 985.42 437.68C977.02 437.68 970.36 440.2 965.44 445.24C960.64 450.28 958.24 457.72 958.24 467.56V541H914.5L914.32 517.24H928.9V470.08C928.9 457.96 931.24 447.64 935.92 439.12C940.6 430.48 947.2 423.94 955.72 419.5C964.24 415.06 974.14 412.84 985.42 412.84Z" fill="#1E1330"/>
<path d="M1231.78 543.16C1218.7 543.16 1206.88 540.34 1196.32 534.7C1185.88 529.06 1177.66 521.32 1171.66 511.48C1165.78 501.52 1162.84 490.36 1162.84 478C1162.84 465.64 1165.78 454.54 1171.66 444.7C1177.66 434.74 1185.88 426.94 1196.32 421.3C1206.88 415.66 1218.7 412.84 1231.78 412.84C1244.86 412.84 1256.62 415.66 1267.06 421.3C1277.5 426.94 1285.72 434.74 1291.72 444.7C1297.72 454.54 1300.72 465.64 1300.72 478C1300.72 490.36 1297.72 501.52 1291.72 511.48C1285.72 521.32 1277.5 529.06 1267.06 534.7C1256.62 540.34 1244.86 543.16 1231.78 543.16ZM1231.78 518.32C1239.22 518.32 1245.94 516.64 1251.94 513.28C1257.94 509.8 1262.62 505 1265.98 498.88C1269.46 492.76 1271.2 485.8 1271.2 478C1271.2 470.2 1269.46 463.24 1265.98 457.12C1262.62 451 1257.94 446.26 1251.94 442.9C1245.94 439.42 1239.22 437.68 1231.78 437.68C1224.34 437.68 1217.62 439.42 1211.62 442.9C1205.62 446.26 1200.88 451 1197.4 457.12C1194.04 463.24 1192.36 470.2 1192.36 478C1192.36 485.8 1194.04 492.76 1197.4 498.88C1200.88 505 1205.62 509.8 1211.62 513.28C1217.62 516.64 1224.34 518.32 1231.78 518.32Z" fill="#1E1330"/>
<path d="M1159.62 415V541H1131.36V525.7C1122.72 537.34 1110 543.16 1093.2 543.16C1078.32 543.16 1066.68 538.48 1058.28 529.12C1050 519.64 1045.86 506.2 1045.86 488.8V415H1075.02V487.9C1075.02 497.98 1077.36 505.6 1082.04 510.76C1086.84 515.8 1093.32 518.32 1101.48 518.32C1110.24 518.32 1117.26 515.62 1122.54 510.22C1127.82 504.7 1130.46 496.6 1130.46 485.92V415H1159.62Z" fill="#1E1330"/>
<path d="M-7 670.512C129.5 714.512 460.1 785.912 690.5 719.512C978.5 636.512 957 -20.92 690.5 22.0121C390.322 70.3696 757.5 802 1138 670C1370.19 589.451 1287 -6.48787 1121.5 124C1078.58 157.843 1068.82 236.525 1089.08 323M2042 207.012C2105.33 215.179 2130.6 296.912 1725 558.512C1403.49 765.877 1187.77 582.257 1110.55 390.5M1089.08 323C1094.28 345.195 1101.45 367.904 1110.55 390.5M1089.08 323C1092.59 337.122 1101.79 370.392 1110.55 390.5" stroke="#902AF5" stroke-width="10"/>
<path d="M1075.5 222.25C1100 222.25 1119.08 228.25 1132.75 240.25C1146.58 252.25 1153.5 269.083 1153.5 290.75C1153.5 311.25 1147.25 327.333 1134.75 339C1122.42 350.667 1105.08 356.5 1082.75 356.5C1075.42 356.5 1068.25 355.75 1061.25 354.25C1054.42 352.75 1047 350.25 1039 346.75V399H999V295.5C999 272 1005.5 253.917 1018.5 241.25C1031.67 228.583 1050.67 222.25 1075.5 222.25ZM1075.75 326C1087.58 326 1096.67 323 1103 317C1109.5 311 1112.75 302.5 1112.75 291.5C1112.75 280.333 1109.5 271.667 1103 265.5C1096.67 259.333 1087.83 256.25 1076.5 256.25C1064.67 256.25 1055.42 259.667 1048.75 266.5C1042.25 273.333 1039 282.917 1039 295.25V314.75C1044 318.25 1049.67 321 1056 323C1062.5 325 1069.08 326 1075.75 326Z" fill="#1E1330"/>
<path d="M1085.5 307.5C1089.17 323.5 1092.5 339 1105 376" stroke="#902AF5" stroke-width="10"/>
<path d="M703.86 413.02C719.82 413.02 733.8 415.84 745.8 421.48C757.8 427 766.98 434.68 773.34 444.52C779.82 454.36 783.06 465.52 783.06 478C783.06 490.48 779.82 501.64 773.34 511.48C766.98 521.32 757.8 529.06 745.8 534.7C733.8 540.22 719.82 542.98 703.86 542.98C687.78 542.98 673.74 540.22 661.74 534.7C649.86 529.06 640.68 521.32 634.2 511.48C627.84 501.64 624.66 490.48 624.66 478C624.66 465.52 627.84 454.36 634.2 444.52C640.68 434.68 649.86 427 661.74 421.48C673.74 415.84 687.78 413.02 703.86 413.02ZM653.1 478C653.1 488.56 656.28 497.38 662.64 504.46C669.12 511.54 678.36 516.04 690.36 517.96V438.22C678.36 440.14 669.12 444.64 662.64 451.72C656.28 458.68 653.1 467.44 653.1 478ZM717.36 517.96C729.36 516.04 738.54 511.54 744.9 504.46C751.38 497.38 754.62 488.56 754.62 478C754.62 467.44 751.38 458.68 744.9 451.72C738.54 444.64 729.36 440.14 717.36 438.22V517.96Z" fill="#1E1330"/>
<path d="M852.78 543.16C839.7 543.16 827.88 540.34 817.32 534.7C806.88 529.06 798.66 521.32 792.66 511.48C786.78 501.52 783.84 490.36 783.84 478C783.84 465.64 786.78 454.54 792.66 444.7C798.66 434.74 806.88 426.94 817.32 421.3C827.88 415.66 839.7 412.84 852.78 412.84C865.86 412.84 877.62 415.66 888.06 421.3C898.5 426.94 906.72 434.74 912.72 444.7C918.72 454.54 921.72 465.64 921.72 478C921.72 490.36 918.72 501.52 912.72 511.48C906.72 521.32 898.5 529.06 888.06 534.7C877.62 540.34 865.86 543.16 852.78 543.16ZM852.78 518.32C860.22 518.32 866.94 516.64 872.94 513.28C878.94 509.8 883.62 505 886.98 498.88C890.46 492.76 892.2 485.8 892.2 478C892.2 470.2 890.46 463.24 886.98 457.12C883.62 451 878.94 446.26 872.94 442.9C866.94 439.42 860.22 437.68 852.78 437.68C845.34 437.68 838.62 439.42 832.62 442.9C826.62 446.26 821.88 451 818.4 457.12C815.04 463.24 813.36 470.2 813.36 478C813.36 485.8 815.04 492.76 818.4 498.88C821.88 505 826.62 509.8 832.62 513.28C838.62 516.64 845.34 518.32 852.78 518.32Z" fill="#1E1330"/>
<path d="M899.25 402C881.083 402 864.667 398.083 850 390.25C835.5 382.417 824.083 371.667 815.75 358C807.583 344.167 803.5 328.667 803.5 311.5C803.5 294.333 807.583 278.917 815.75 265.25C824.083 251.417 835.5 240.583 850 232.75C864.667 224.917 881.083 221 899.25 221C917.417 221 933.75 224.917 948.25 232.75C962.75 240.583 974.167 251.417 982.5 265.25C990.833 278.917 995 294.333 995 311.5C995 328.667 990.833 344.167 982.5 358C974.167 371.667 962.75 382.417 948.25 390.25C933.75 398.083 917.417 402 899.25 402ZM899.25 367.5C909.583 367.5 918.917 365.167 927.25 360.5C935.583 355.667 942.083 349 946.75 340.5C951.583 332 954 322.333 954 311.5C954 300.667 951.583 291 946.75 282.5C942.083 274 935.583 267.417 927.25 262.75C918.917 257.917 909.583 255.5 899.25 255.5C888.917 255.5 879.583 257.917 871.25 262.75C862.917 267.417 856.333 274 851.5 282.5C846.833 291 844.5 300.667 844.5 311.5C844.5 322.333 846.833 332 851.5 340.5C856.333 349 862.917 355.667 871.25 360.5C879.583 365.167 888.917 367.5 899.25 367.5Z" fill="#1E1330"/>
<path d="M887 217C890 230.5 893 250 894.5 263.5" stroke="#902AF5" stroke-width="10"/>
<circle cx="706" cy="713" r="15" fill="#CAAAFF" stroke="#902AF5" stroke-width="10"/>
<circle cx="1125" cy="673" r="15" fill="#CAAAFF" stroke="#902AF5" stroke-width="10"/>
<circle cx="703" cy="20" r="15" fill="#CAAAFF" stroke="#902AF5" stroke-width="10"/>
<circle cx="1156" cy="108" r="15" fill="#CAAAFF" stroke="#902AF5" stroke-width="10"/>
<circle cx="1433" cy="647" r="15" fill="#CAAAFF" stroke="#902AF5" stroke-width="10"/>
</svg>
