<svg width="1393" height="559" viewBox="0 0 1393 559" fill="none" xmlns="http://www.w3.org/2000/svg">
<path d="M143.508 554.583C126.443 559.759 109.859 560.783 93.7582 557.655C77.7683 554.32 63.8026 547.322 51.8611 536.663C40.0308 525.795 31.6 512.068 26.5689 495.481C21.5377 478.894 20.9462 462.876 24.7944 447.427C28.7537 431.771 36.4788 418.194 47.9698 406.697C59.5718 394.992 73.9854 386.527 91.2104 381.303C105.724 376.9 119.576 375.485 132.767 377.057C146.118 378.581 158.232 382.919 169.109 390.069L151.194 420.583C135.904 410.939 119.885 408.657 103.138 413.737C92.7713 416.881 84.2223 422 77.4912 429.092C70.7117 436.025 66.2429 444.26 64.0848 453.797C62.0863 463.286 62.6593 473.213 65.8037 483.58C68.9482 493.947 73.9869 502.521 80.9199 509.3C88.0124 516.031 96.3271 520.476 105.864 522.634C115.353 524.632 125.28 524.059 135.647 520.915C152.394 515.835 164.422 504.959 171.73 488.287L203.577 503.707C198.553 515.855 190.915 526.27 180.66 534.954C170.406 543.637 158.022 550.18 143.508 554.583ZM338.875 309.316L389.67 476.782L351.153 488.465L309.936 352.579L234.337 375.509L275.554 511.396L237.037 523.079L186.241 355.613L338.875 309.316ZM453.92 271.286C469.39 266.594 483.787 265.536 497.108 268.114C510.43 270.691 522.071 276.914 532.03 286.781C541.99 296.648 549.509 309.955 554.589 326.702L582.381 418.33L543.625 430.085L531.434 389.893L454.878 413.114L467.069 453.306L428.791 464.916L400.999 373.288C395.919 356.542 394.779 341.3 397.579 327.562C400.379 313.825 406.601 302.184 416.246 292.641C425.891 283.097 438.449 275.979 453.92 271.286ZM522 358.792L514.744 334.869C510.535 320.993 503.937 311.586 494.951 306.649C485.916 301.552 475.497 300.794 463.695 304.373C451.733 308.002 443.411 314.444 438.73 323.702C434.16 332.751 433.979 344.214 438.188 358.09L445.445 382.013L522 358.792ZM701.65 385.288C684.584 390.464 668.001 391.489 651.9 388.361C635.91 385.025 621.944 378.028 610.003 367.368C598.173 356.501 589.742 342.774 584.711 326.186C579.679 309.599 579.088 293.581 582.936 278.133C586.895 262.476 594.621 248.899 606.111 237.402C617.714 225.697 632.127 217.233 649.352 212.008C663.866 207.606 677.718 206.191 690.909 207.763C704.259 209.287 716.373 213.624 727.25 220.775L709.336 251.288C694.045 241.645 678.027 239.363 661.28 244.442C650.913 247.587 642.364 252.705 635.633 259.798C628.853 266.731 624.385 274.965 622.227 284.502C620.228 293.991 620.801 303.919 623.945 314.286C627.09 324.653 632.129 333.226 639.062 340.005C646.154 346.737 654.469 351.181 664.006 353.339C673.494 355.338 683.422 354.765 693.789 351.62C710.536 346.541 722.563 335.665 729.872 318.992L761.719 334.412C756.695 346.56 749.056 356.976 738.802 365.659C728.548 374.343 716.164 380.886 701.65 385.288ZM893.189 141.183L943.984 308.649L906.424 320.041L900.256 299.706C893.465 318.66 878.905 331.523 856.576 338.296C836.799 344.295 819.442 342.767 804.504 333.713C789.678 324.451 778.757 308.257 771.742 285.131L741.991 187.044L780.747 175.288L810.136 272.179C814.2 285.577 820.382 294.761 828.682 299.732C837.093 304.496 846.722 305.233 857.567 301.943C869.21 298.412 877.452 291.993 882.293 282.688C887.085 273.222 887.328 261.392 883.023 247.198L854.432 152.938L893.189 141.183ZM933.857 128.847L1069.03 87.8482L1078.39 118.71L981.735 148.026L992.184 182.476L1038.6 168.399C1058.85 162.255 1075.52 161.813 1088.62 167.073C1101.86 172.285 1110.91 182.865 1115.75 198.814C1120.83 215.561 1118.87 230.35 1109.87 243.18C1100.87 256.01 1085.61 265.691 1064.08 272.222L984.652 296.313L933.857 128.847ZM1053.22 244.166C1063.11 241.167 1070.1 236.955 1074.2 231.531C1078.26 225.947 1079.15 219.407 1076.87 211.911C1072.42 197.238 1059.99 192.998 1039.58 199.19L1000.82 210.945L1014.46 255.922L1053.22 244.166ZM1242.05 221.374C1224.67 226.647 1207.82 227.664 1191.51 224.425C1175.36 221.138 1161.32 214.165 1149.38 203.505C1137.55 192.638 1129.14 178.99 1124.16 162.563C1119.17 146.135 1118.61 130.197 1122.45 114.748C1126.41 99.0916 1134.19 85.4108 1145.8 73.706C1157.56 61.9527 1172.13 53.4396 1189.52 48.1665C1206.9 42.8935 1223.67 41.9006 1239.82 45.1879C1255.97 48.4753 1270.04 55.5284 1282.03 66.3473C1293.97 77.0068 1302.43 90.5503 1307.41 106.978C1312.39 123.406 1312.91 139.448 1308.95 155.104C1304.94 170.601 1297.13 184.202 1285.53 195.907C1273.93 207.612 1259.44 216.101 1242.05 221.374ZM1232.04 188.359C1241.93 185.36 1250.18 180.418 1256.8 173.533C1263.37 166.489 1267.66 158.223 1269.66 148.734C1271.81 139.197 1271.32 129.246 1268.18 118.879C1265.03 108.512 1259.91 99.9626 1252.82 93.2315C1245.89 86.452 1237.76 82.0388 1228.43 79.9918C1219.05 77.7854 1209.42 78.1819 1199.53 81.1812C1189.64 84.1806 1181.41 89.2023 1174.84 96.2464C1168.22 103.131 1163.83 111.342 1161.67 120.879C1159.67 130.367 1160.25 140.295 1163.39 150.662C1166.54 161.029 1171.57 169.602 1178.51 176.382C1185.6 183.113 1193.83 187.582 1203.21 189.788C1212.54 191.835 1222.15 191.359 1232.04 188.359ZM1303.5 16.7289L1347.99 3.23181L1373.74 114.813L1344.08 123.811L1303.5 16.7289ZM1377.12 179.36C1370.58 181.344 1364.45 180.939 1358.73 178.147C1353.12 175.147 1349.39 170.616 1347.55 164.556C1345.71 158.495 1346.34 152.818 1349.44 147.525C1352.49 142.072 1357.36 138.329 1364.06 136.297C1370.76 134.266 1376.89 134.67 1382.45 137.511C1387.97 140.192 1391.65 144.563 1393.49 150.623C1395.32 156.684 1394.66 162.545 1391.5 168.206C1388.45 173.658 1383.66 177.377 1377.12 179.36Z" fill="#1E1330"/>
</svg>
