<svg width="1920" height="1263" viewBox="0 0 1920 1263" fill="none" xmlns="http://www.w3.org/2000/svg">
<mask id="mask0_283_1830" style="mask-type:alpha" maskUnits="userSpaceOnUse" x="0" y="0" width="1920" height="1263">
<rect width="1920" height="1263" fill="#D9D9D9"/>
</mask>
<g mask="url(#mask0_283_1830)">
<path fill-rule="evenodd" clip-rule="evenodd" d="M-223.471 48.4819C-126.513 18.7307 25.7736 -27.9985 208.5 64.7375C289.19 105.689 347.451 138.8 394.293 165.423C521.318 237.615 564.372 262.085 743 265.738C987.5 270.738 1819 290.238 2068.5 297.238C2103.5 298.22 2123.37 305.193 2132.19 315.434L2191 316.5L2300.5 1216C1823.62 1316.24 1724.2 1223.85 1466.72 984.585C1412.12 933.849 1350.42 876.508 1276.5 813C932.862 517.756 -16.5 550.5 -154 703.5V274L-123.177 274.559L-283 64.7375C-266.52 61.6916 -246.565 55.5684 -223.471 48.4819Z" fill="#A67AEE"/>
</g>
</svg>
