<svg width="101" height="101" viewBox="0 0 101 101" fill="none" xmlns="http://www.w3.org/2000/svg">
<g clip-path="url(#clip0_280_1631)">
<path d="M18.3119 0.60328H82.8952C85.2213 0.601031 87.525 1.06928 89.6745 1.98123C91.8239 2.89318 93.7769 4.23092 95.4218 5.91791C97.0666 7.60489 98.3709 9.60799 99.26 11.8126C100.149 14.0171 100.606 16.3799 100.604 18.7657V82.4409C100.606 84.8266 100.149 87.1894 99.26 89.394C98.3709 91.5986 97.0666 93.6017 95.4218 95.2886C93.7769 96.9756 91.8239 98.3134 89.6745 99.2253C87.525 100.137 85.2213 100.606 82.8952 100.603H18.3119C15.9857 100.606 13.682 100.137 11.5326 99.2253C9.38311 98.3134 7.43009 96.9756 5.78528 95.2886C4.14048 93.6017 2.83618 91.5986 1.94702 89.394C1.05787 87.1894 0.601331 84.8266 0.603523 82.4409V18.7657C0.601331 16.3799 1.05787 14.0171 1.94702 11.8126C2.83618 9.60799 4.14048 7.60489 5.78528 5.91791C7.43009 4.23092 9.38311 2.89318 11.5326 1.98123C13.682 1.06928 15.9857 0.601031 18.3119 0.60328V0.60328Z" fill="#008DD4"/>
<path d="M44.138 81.6722C27.0255 81.6722 13.1035 67.7502 13.1035 50.6378C13.1035 33.5253 27.0255 19.6033 44.138 19.6033C55.1802 19.6033 65.4785 25.5455 71.0136 35.1108L57.5826 42.8828C54.8123 38.095 49.6603 35.1205 44.138 35.1205C35.5816 35.1205 28.6208 42.0814 28.6208 50.6378C28.6208 59.1938 35.5816 66.155 44.138 66.155C49.6609 66.155 54.8129 63.1806 57.5835 58.3918L71.0145 66.1635C65.4794 75.7297 55.1808 81.6722 44.138 81.6722Z" fill="white"/>
<path d="M75.173 48.9135H71.7245V45.4653H68.2766V48.9135H64.8281V52.3617H68.2766V55.8102H71.7245V52.3617H75.173V48.9135Z" fill="white"/>
<path d="M88.1036 48.9135H84.6551V45.4653H81.2073V48.9135H77.7588V52.3617H81.2073V55.8102H84.6551V52.3617H88.1036V48.9135Z" fill="white"/>
</g>
<defs>
<clipPath id="clip0_280_1631">
<rect width="100" height="100" fill="white" transform="translate(0.603516 0.603271)"/>
</clipPath>
</defs>
</svg>
