<svg width="101" height="101" viewBox="0 0 101 101" fill="none" xmlns="http://www.w3.org/2000/svg">
<g clip-path="url(#clip0_280_1658)">
<path d="M18.0199 0.311531L82.6032 0.311531C84.9293 0.309283 87.233 0.777532 89.3825 1.68948C91.5319 2.60143 93.485 3.93918 95.1298 5.62616C96.7746 7.31314 98.0789 9.31624 98.968 11.5208C99.8572 13.7254 100.314 16.0882 100.312 18.4739V82.1491C100.314 84.5349 99.8572 86.8977 98.968 89.1022C98.0789 91.3068 96.7746 93.3099 95.1298 94.9969C93.485 96.6839 91.5319 98.0216 89.3825 98.9336C87.233 99.8455 84.9293 100.314 82.6032 100.312H18.0199C15.6938 100.314 13.39 99.8455 11.2406 98.9336C9.09112 98.0216 7.1381 96.6839 5.49329 94.9969C3.84849 93.3099 2.54418 91.3068 1.65503 89.1022C0.765882 86.8977 0.309339 84.5349 0.311531 82.1491L0.311531 18.4739C0.309339 16.0882 0.765882 13.7254 1.65503 11.5208C2.54418 9.31624 3.84849 7.31314 5.49329 5.62616C7.1381 3.93918 9.09112 2.60143 11.2406 1.68948C13.39 0.777532 15.6938 0.309283 18.0199 0.311531V0.311531Z" fill="#EC4E68"/>
<path d="M52.346 81.3807C35.2335 81.3807 21.3115 67.4587 21.3115 50.3462C21.3115 33.2338 35.2335 19.3118 52.346 19.3118C63.3882 19.3118 73.6865 25.254 79.2216 34.8193L65.7906 42.5913C63.0203 37.8034 57.8683 34.829 52.346 34.829C43.7896 34.829 36.8288 41.7899 36.8288 50.3462C36.8288 58.9023 43.7896 65.8635 52.346 65.8635C57.8689 65.8635 63.021 62.889 65.7915 58.1003L79.2225 65.872C73.6874 75.4382 63.3888 81.3807 52.346 81.3807Z" fill="white"/>
</g>
<defs>
<clipPath id="clip0_280_1658">
<rect width="100" height="100" fill="white" transform="translate(0.311523 0.311523)"/>
</clipPath>
</defs>
</svg>
