<svg width="242" height="242" viewBox="0 0 242 242" fill="none" xmlns="http://www.w3.org/2000/svg">
<g clip-path="url(#clip0_280_1671)">
<path d="M42.8542 1.95056e-05L199.146 1.95056e-05C204.775 -0.00542208 210.35 1.12774 215.552 3.33466C220.753 5.54158 225.48 8.77892 229.46 12.8614C233.441 16.9439 236.597 21.7914 238.749 27.1265C240.9 32.4616 242.005 38.1795 242 43.953V198.047C242.005 203.821 240.9 209.538 238.749 214.874C236.597 220.209 233.441 225.056 229.46 229.139C225.48 233.221 220.753 236.458 215.552 238.665C210.35 240.872 204.775 242.005 199.146 242H42.8542C37.225 242.005 31.65 240.872 26.4483 238.665C21.2466 236.458 16.5203 233.221 12.5399 229.139C8.55945 225.056 5.40304 220.209 3.25129 214.874C1.09955 209.538 -0.00528653 203.821 1.90179e-05 198.047L1.90179e-05 43.953C-0.00528653 38.1795 1.09955 32.4616 3.25129 27.1265C5.40304 21.7914 8.55945 16.9439 12.5399 12.8614C16.5203 8.77892 21.2466 5.54158 26.4483 3.33466C31.65 1.12774 37.225 -0.00542208 42.8542 1.95056e-05V1.95056e-05Z" fill="#000B1D"/>
<path d="M97.8089 194.81C111.731 194.81 123.017 183.524 123.017 169.602V144.394H97.8089C83.8867 144.394 72.6006 155.68 72.6006 169.602C72.6006 183.524 83.8867 194.81 97.8089 194.81Z" fill="#0ACF83"/>
<path d="M72.6006 119.185C72.6006 105.263 83.8867 93.9766 97.8089 93.9766H123.017V144.393H97.8089C83.8867 144.393 72.6006 133.107 72.6006 119.185Z" fill="#A259FF"/>
<path d="M72.6006 68.7684C72.6006 54.8462 83.8867 43.5601 97.8089 43.5601H123.017V93.9767H97.8089C83.8867 93.9767 72.6006 82.6906 72.6006 68.7684Z" fill="#F24E1E"/>
<path d="M123.018 43.5601H148.226C162.148 43.5601 173.434 54.8462 173.434 68.7684C173.434 82.6906 162.148 93.9767 148.226 93.9767H123.018V43.5601Z" fill="#FF7262"/>
<path d="M173.434 119.185C173.434 133.107 162.148 144.393 148.226 144.393C134.304 144.393 123.018 133.107 123.018 119.185C123.018 105.263 134.304 93.9766 148.226 93.9766C162.148 93.9766 173.434 105.263 173.434 119.185Z" fill="#1ABCFE"/>
</g>
<defs>
<clipPath id="clip0_280_1671">
<rect width="242" height="242" fill="white"/>
</clipPath>
</defs>
</svg>
