<svg width="201" height="201" viewBox="0 0 201 201" fill="none" xmlns="http://www.w3.org/2000/svg">
<path d="M35.4275 1.61253e-05L164.634 1.61253e-05C169.287 -0.00448243 173.896 0.932304 178.197 2.75676C182.497 4.58122 186.404 7.25753 189.695 10.6325C192.985 14.0075 195.595 18.015 197.374 22.4255C199.152 26.836 200.066 31.563 200.061 36.3359V163.725C200.066 168.498 199.152 173.225 197.374 177.636C195.595 182.046 192.985 186.054 189.695 189.429C186.404 192.804 182.497 195.48 178.197 197.305C173.896 199.129 169.287 200.066 164.634 200.061H35.4275C30.7739 200.066 26.1651 199.129 21.8648 197.305C17.5646 195.48 13.6573 192.804 10.3667 189.429C7.07609 186.054 4.46669 182.046 2.68784 177.636C0.908996 173.225 -0.00437037 168.498 1.57221e-05 163.725L1.57221e-05 36.3359C-0.00437037 31.563 0.908996 26.836 2.68784 22.4255C4.46669 18.015 7.07609 14.0075 10.3667 10.6325C13.6573 7.25753 17.5646 4.58122 21.8648 2.75676C26.1651 0.932304 30.7739 -0.00448243 35.4275 1.61253e-05V1.61253e-05Z" fill="black"/>
<path d="M172.225 93.3475L106.709 27.8374C102.94 24.0643 96.8209 24.0643 93.0465 27.8374L79.443 41.4429L96.6987 58.6992C100.71 57.3448 105.308 58.2529 108.504 61.4498C111.717 64.6667 112.619 69.3041 111.23 73.3292L127.862 89.9613C131.885 88.5747 136.528 89.4705 139.741 92.6892C144.233 97.18 144.233 104.457 139.741 108.949C135.248 113.442 127.972 113.442 123.477 108.949C120.099 105.568 119.264 100.606 120.974 96.444L105.464 80.9327L105.463 121.75C106.558 122.292 107.591 123.016 108.504 123.925C112.994 128.415 112.994 135.69 108.504 140.188C104.012 144.678 96.7321 144.678 92.245 140.188C87.7538 135.691 87.7538 128.415 92.245 123.925C93.3549 122.817 94.6392 121.978 96.0096 121.416V80.219C94.6386 79.6593 93.3558 78.8269 92.2442 77.71C88.8423 74.3106 88.023 69.3175 89.7677 65.1399L72.757 48.1259L27.8385 93.0449C24.0643 96.8209 24.0643 102.94 27.8385 106.714L93.35 172.224C97.1217 175.997 103.238 175.997 107.015 172.224L172.224 107.023C175.997 103.248 175.997 97.127 172.224 93.3531" fill="#F05133"/>
</svg>
