<svg width="172" height="172" viewBox="0 0 172 172" fill="none" xmlns="http://www.w3.org/2000/svg">
<g clip-path="url(#clip0_280_1692)">
<path d="M30.4583 1.38635e-05L141.542 1.38635e-05C145.543 -0.00385371 149.505 0.801535 153.202 2.37009C156.899 3.93864 160.258 6.23956 163.087 9.14117C165.916 12.0428 168.16 15.4881 169.689 19.28C171.219 23.0719 172.004 27.1358 172 31.2393V140.761C172.004 144.864 171.219 148.928 169.689 152.72C168.16 156.512 165.916 159.957 163.087 162.859C160.258 165.76 156.899 168.061 153.202 169.63C149.505 171.198 145.543 172.004 141.542 172H30.4583C26.4574 172.004 22.4951 171.198 18.798 169.63C15.1009 168.061 11.7417 165.76 8.91264 162.859C6.08357 159.957 3.84017 156.512 2.31084 152.72C0.781497 148.928 -0.00375737 144.864 1.35169e-05 140.761L1.35169e-05 31.2393C-0.00375737 27.1358 0.781497 23.0719 2.31084 19.28C3.84017 15.4881 6.08357 12.0428 8.91264 9.14117C11.7417 6.23956 15.1009 3.93864 18.798 2.37009C22.4951 0.801535 26.4574 -0.00385371 30.4583 1.38635e-05V1.38635e-05Z" fill="#F16529"/>
<path d="M59.3398 51.5659H86.0567V32.6802H38.7002L39.152 37.7468L43.794 89.7908H86.0567V70.9051H61.066L59.3398 51.5659V51.5659ZM63.5963 99.234H44.6379L47.2835 128.887L85.9698 139.626L86.0567 139.603V119.953L85.9739 119.975L64.941 114.296L63.5963 99.234V99.234Z" fill="#EBEBEB"/>
<path d="M85.9918 89.7909H109.248L107.055 114.284L85.9912 119.969V139.617L124.708 128.887L124.992 125.697L129.431 75.9765L129.891 70.9052H85.9918V89.7909ZM85.9918 51.5198V51.5659H131.61L131.988 47.3212L132.849 37.7468L133.3 32.6802H85.9918V51.5203V51.5198Z" fill="white"/>
</g>
<defs>
<clipPath id="clip0_280_1692">
<rect width="172" height="172" fill="white"/>
</clipPath>
</defs>
</svg>
