<svg width="207" height="207" viewBox="0 0 207 207" fill="none" xmlns="http://www.w3.org/2000/svg">
<path d="M170.088 0L36.0792 0C16.1532 0 0 16.1532 0 36.0792L0 170.088C0 190.014 16.1532 206.167 36.0792 206.167H170.088C190.014 206.167 206.167 190.014 206.167 170.088V36.0792C206.167 16.1532 190.014 0 170.088 0Z" fill="#430C1F"/>
<path d="M76.1388 62.821V149.117C76.1388 149.922 75.7785 150.325 75.0578 150.325H60.8691C60.1484 150.325 59.7881 149.922 59.7881 149.117V62.821C59.7881 62.1052 60.1484 61.7473 60.8691 61.7473H75.1929C75.8235 61.7473 76.1388 62.1052 76.1388 62.821Z" fill="#EC4E68"/>
<path d="M120.144 151.533C110.054 151.533 101.991 148.714 95.9554 143.078C89.9196 137.441 86.9017 129.12 86.9017 118.115C86.9017 108.094 90.1448 99.8625 96.6311 93.4205C103.117 86.9785 111.766 83.7575 122.576 83.7575C125.279 83.7575 127.621 83.9812 129.603 84.4285V55.4395C129.603 54.9027 129.873 54.6343 130.414 54.6343H145.278C145.728 54.6343 145.953 54.9027 145.953 55.4395V135.83C145.953 139.23 146.089 142.183 146.359 144.688C146.449 145.225 146.224 145.628 145.683 145.896C137.846 149.654 129.333 151.533 120.144 151.533ZM129.603 138.246V96.7757C127.801 95.7915 125.369 95.2994 122.306 95.2994C116.81 95.2994 112.351 97.2231 108.928 101.07C105.505 104.918 103.793 110.375 103.793 117.444C103.793 124.959 105.46 130.507 108.793 134.086C112.216 137.665 116.54 139.454 121.765 139.454C125.008 139.454 127.621 139.051 129.603 138.246Z" fill="#EC4E68"/>
</svg>
