<svg width="219" height="219" viewBox="0 0 219 219" fill="none" xmlns="http://www.w3.org/2000/svg">
<g clip-path="url(#clip0_280_1689)">
<path d="M38.7813 1.76517e-05H180.219C185.313 -0.00490676 190.358 1.02056 195.065 3.01773C199.773 5.0149 204.05 7.94456 207.652 11.639C211.254 15.3335 214.11 19.7203 216.058 24.5484C218.005 29.3764 219.005 34.5509 219 39.7757V179.224C219.005 184.449 218.005 189.624 216.058 194.452C214.11 199.28 211.254 203.666 207.652 207.361C204.05 211.055 199.773 213.985 195.065 215.982C190.358 217.979 185.313 219.005 180.219 219H38.7813C33.6871 219.005 28.642 217.979 23.9346 215.982C19.2273 213.985 14.9502 211.055 11.3481 207.361C7.74595 203.666 4.88952 199.28 2.94228 194.452C0.995046 189.624 -0.00478409 184.449 1.72104e-05 179.224V39.7757C-0.00478409 34.5509 0.995046 29.3764 2.94228 24.5484C4.88952 19.7203 7.74595 15.3335 11.3481 11.639C14.9502 7.94456 19.2273 5.0149 23.9346 3.01773C28.642 1.02056 33.6871 -0.00490676 38.7813 1.76517e-05V1.76517e-05Z" fill="#F7DF1E"/>
<path d="M147.484 171.359C151.896 178.561 157.635 183.856 167.785 183.856C176.313 183.856 181.76 179.594 181.76 173.705C181.76 166.649 176.163 164.149 166.777 160.044L161.633 157.836C146.782 151.51 136.917 143.584 136.917 126.829C136.917 111.395 148.677 99.645 167.055 99.645C180.14 99.645 189.546 104.199 196.325 116.122L180.3 126.412C176.771 120.085 172.965 117.593 167.055 117.593C161.028 117.593 157.207 121.416 157.207 126.412C157.207 132.585 161.031 135.085 169.861 138.909L175.005 141.112C192.491 148.611 202.363 156.255 202.363 173.441C202.363 191.969 187.808 202.12 168.262 202.12C149.15 202.12 136.802 193.012 130.761 181.075L147.484 171.359ZM74.7869 173.142C78.0198 178.878 80.9606 183.727 88.0312 183.727C94.7924 183.727 99.0577 181.082 99.0577 170.796V100.82H119.637V171.074C119.637 192.383 107.143 202.081 88.9072 202.081C72.4301 202.081 62.8879 193.554 58.0352 183.284L74.7869 173.142Z" fill="black"/>
</g>
<defs>
<clipPath id="clip0_280_1689">
<rect width="219" height="219" fill="white"/>
</clipPath>
</defs>
</svg>
