<svg width="191" height="191" viewBox="0 0 191 191" fill="none" xmlns="http://www.w3.org/2000/svg">
<path d="M157.017 0.765625L33.9106 0.765625C15.6057 0.765625 0.766602 15.6047 0.766602 33.9096L0.766602 157.016C0.766602 175.321 15.6057 190.16 33.9106 190.16H157.017C175.322 190.16 190.161 175.321 190.161 157.016V33.9096C190.161 15.6047 175.322 0.765625 157.017 0.765625Z" fill="#001E36"/>
<path d="M43.3799 135.04L43.3799 54.9023C43.3799 54.3288 43.6671 54.042 44.2416 54.042C50.4786 53.8781 58.3981 53.7961 67.9999 53.7961C79.325 53.7961 87.6138 56.3363 92.866 61.4166C98.2004 66.4969 100.868 72.7654 100.868 80.222C100.868 89.4812 97.5849 96.3642 91.0195 100.871C84.4542 105.378 76.2065 107.631 66.2765 107.631H59.0136L59.0136 134.917C59.0136 135.573 58.6853 135.901 58.0288 135.901H44.3647C43.7081 135.901 43.3799 135.614 43.3799 135.04ZM59.0136 65.5956V95.8316C60.1625 95.9955 62.8297 96.0774 67.0151 96.0774C72.5135 96.0774 76.9451 94.8893 80.3098 92.513C83.7566 90.0548 85.48 86.0807 85.48 80.5907C85.48 75.7562 83.9618 72.0279 80.9253 69.4058C77.9709 66.7837 73.6624 65.4727 67.9999 65.4727C66.6047 65.4727 65.2096 65.5136 63.8145 65.5956C62.5014 65.5956 61.3935 65.5956 60.4908 65.5956C59.6701 65.5956 59.1777 65.5956 59.0136 65.5956Z" fill="#31A8FE"/>
<path d="M143.816 90.1777C139.22 87.3098 134.419 85.8758 129.413 85.8758C126.541 85.8758 124.407 86.4085 123.012 87.4737C121.699 88.5389 121.042 89.809 121.042 91.2839C121.042 92.7588 121.617 94.0699 122.766 95.2171C123.915 96.2823 126.336 97.5524 130.029 99.0273C136.84 101.649 141.6 104.435 144.308 107.385C147.099 110.253 148.494 113.981 148.494 118.57C148.494 124.142 146.36 128.649 142.093 132.09C137.907 135.45 132.203 137.13 124.982 137.13C117.76 137.13 111.851 135.819 107.255 133.196C106.763 133.033 106.517 132.623 106.517 131.967V120.537C106.517 120.209 106.599 120.004 106.763 119.922C107.009 119.758 107.214 119.758 107.378 119.922C112.713 123.855 118.416 125.822 124.489 125.822C127.362 125.822 129.536 125.33 131.014 124.347C132.573 123.282 133.352 121.93 133.352 120.291C133.352 118.57 132.737 117.136 131.506 115.989C130.275 114.76 127.854 113.449 124.243 112.056C117.678 109.516 113.082 106.812 110.456 103.944C107.912 100.994 106.64 97.3065 106.64 92.8818C106.64 87.8014 108.568 83.5405 112.425 80.099C116.283 76.6575 121.781 74.9368 128.921 74.9368C135.568 74.9368 140.697 75.8381 144.308 77.6408C144.719 77.8866 144.924 78.4193 144.924 79.2387V89.4403C144.924 90.4235 144.555 90.6694 143.816 90.1777Z" fill="#31A8FE"/>
</svg>
