<svg width="172" height="172" viewBox="0 0 172 172" fill="none" xmlns="http://www.w3.org/2000/svg">
<g clip-path="url(#clip0_280_1663)">
<path d="M30.4583 1.38635e-05L141.542 1.38635e-05C145.543 -0.00385371 149.505 0.801535 153.202 2.37009C156.899 3.93864 160.258 6.23956 163.087 9.14117C165.916 12.0428 168.16 15.4881 169.689 19.28C171.219 23.0719 172.004 27.1358 172 31.2393V140.761C172.004 144.864 171.219 148.928 169.689 152.72C168.16 156.512 165.916 159.957 163.087 162.859C160.258 165.76 156.899 168.061 153.202 169.63C149.505 171.198 145.543 172.004 141.542 172H30.4583C26.4574 172.004 22.4951 171.198 18.798 169.63C15.1009 168.061 11.7417 165.76 8.91264 162.859C6.08357 159.957 3.84017 156.512 2.31084 152.72C0.781497 148.928 -0.00375737 144.864 1.35169e-05 140.761L1.35169e-05 31.2393C-0.00375737 27.1358 0.781497 23.0719 2.31084 19.28C3.84017 15.4881 6.08357 12.0428 8.91264 9.14117C11.7417 6.23956 15.1009 3.93864 18.798 2.37009C22.4951 0.801535 26.4574 -0.00385371 30.4583 1.38635e-05V1.38635e-05Z" fill="black"/>
<path d="M85.7582 28.3799C55.9448 28.3799 57.8065 41.3088 57.8065 41.3088L57.8398 54.7029H86.2899V58.7245H46.5395C46.5395 58.7245 27.4619 56.5609 27.4619 86.6429C27.4619 116.725 44.1132 115.658 44.1132 115.658H54.0509V101.699C54.0509 101.699 53.5152 85.0476 70.4363 85.0476C87.3574 85.0476 98.6538 85.0476 98.6538 85.0476C98.6538 85.0476 114.507 85.3038 114.507 69.7257C114.507 54.1475 114.507 43.9676 114.507 43.9676C114.507 43.9676 116.914 28.3799 85.7582 28.3799ZM70.0707 37.3869C72.9013 37.3869 75.1891 39.6747 75.1891 42.5053C75.1891 45.3358 72.9013 47.6236 70.0707 47.6236C67.2401 47.6236 64.9523 45.3358 64.9523 42.5053C64.9523 39.6747 67.2401 37.3869 70.0707 37.3869Z" fill="url(#paint0_linear_280_1663)"/>
<path d="M86.6049 145.207C116.418 145.207 114.557 132.278 114.557 132.278L114.523 118.884H86.0731V114.863H125.824C125.824 114.863 144.901 117.026 144.901 86.9442C144.901 56.8622 128.25 57.929 128.25 57.929H118.312V71.8882C118.312 71.8882 118.848 88.5395 101.927 88.5395C85.0057 88.5395 73.7093 88.5395 73.7093 88.5395C73.7093 88.5395 57.8556 88.2832 57.8556 103.861C57.8556 119.44 57.8556 129.619 57.8556 129.619C57.8556 129.619 55.4486 145.207 86.6049 145.207ZM102.292 136.2C99.4618 136.2 97.174 133.912 97.174 131.082C97.174 128.251 99.4618 125.963 102.292 125.963C105.123 125.963 107.411 128.251 107.411 131.082C107.411 133.912 105.123 136.2 102.292 136.2Z" fill="url(#paint1_linear_280_1663)"/>
</g>
<defs>
<linearGradient id="paint0_linear_280_1663" x1="38.748" y1="38.5917" x2="96.8183" y2="96.8561" gradientUnits="userSpaceOnUse">
<stop stop-color="#387EB8"/>
<stop offset="1" stop-color="#366994"/>
</linearGradient>
<linearGradient id="paint1_linear_280_1663" x1="74.4704" y1="75.6566" x2="136.838" y2="135.408" gradientUnits="userSpaceOnUse">
<stop stop-color="#FFE052"/>
<stop offset="1" stop-color="#FFC331"/>
</linearGradient>
<clipPath id="clip0_280_1663">
<rect width="172" height="172" fill="white"/>
</clipPath>
</defs>
</svg>
