<svg width="148" height="148" viewBox="0 0 148 148" fill="none" xmlns="http://www.w3.org/2000/svg">
<path d="M26.2083 1.1929e-05H121.792C125.234 -0.00331598 128.644 0.689693 131.825 2.03938C135.006 3.38906 137.897 5.36893 140.331 7.86566C142.765 10.3624 144.696 13.327 146.012 16.5898C147.328 19.8525 148.003 23.3494 148 26.8803V121.12C148.003 124.651 147.328 128.147 146.012 131.41C144.696 134.673 142.765 137.638 140.331 140.134C137.897 142.631 135.006 144.611 131.825 145.961C128.644 147.31 125.234 148.003 121.792 148H26.2083C22.7657 148.003 19.3562 147.31 16.175 145.961C12.9938 144.611 10.1033 142.631 7.66902 140.134C5.2347 137.638 3.30434 134.673 1.98839 131.41C0.672451 128.147 -0.00323308 124.651 1.16308e-05 121.12V26.8803C-0.00323308 23.3494 0.672451 19.8525 1.98839 16.5898C3.30434 13.327 5.2347 10.3624 7.66902 7.86566C10.1033 5.36893 12.9938 3.38906 16.175 2.03938C19.3562 0.689693 22.7657 -0.00331598 26.2083 1.1929e-05V1.1929e-05Z" fill="#000B1D"/>
<path d="M55.4632 62.3215C54.5375 63.7483 53.6431 65.1811 52.7799 66.6161C51.8356 64.017 51.0067 61.4573 50.3006 58.9602C52.8107 58.6006 55.4787 58.3167 58.2908 58.1203C57.3359 59.4893 56.3923 60.8898 55.4632 62.3215ZM124.866 67.3515C122.086 64.6823 118.11 62.2365 113.051 60.0819C103.007 55.8045 89.5543 53.0333 75.1695 52.2788C73.4348 52.1879 71.7412 52.1257 70.1033 52.0925C81.0859 38.9837 91.6925 32.0088 97.8696 31.7741C99.1776 31.7242 100.276 31.983 101.136 32.5421C104.027 34.4209 104.829 40.2485 103.282 48.1308C102.976 49.6868 103.99 51.1958 105.546 51.5013C107.102 51.8056 108.611 50.7931 108.916 49.237C111.576 35.6865 107.855 30.0609 104.266 27.7274C102.392 26.5095 100.165 25.9406 97.6515 26.0361C88.1499 26.3971 74.8366 36.5285 62.6888 52.1475C57.8793 52.3134 53.2427 52.7286 48.9054 53.3763C48.4294 51.1658 48.0615 49.0231 47.8123 46.9694C46.7228 37.9901 48.059 31.6162 51.3864 29.9192C51.921 29.6467 52.5052 29.4897 53.1724 29.4397C56.1456 29.216 60.3406 31.2139 64.9771 35.0644C66.1965 36.0773 68.0068 35.9099 69.0202 34.6898C70.0331 33.47 69.8654 31.6599 68.6456 30.6469C62.6905 25.7014 57.3403 23.3681 52.7427 23.7136C51.3211 23.8202 49.9872 24.1872 48.7777 24.8039C45.6869 26.3801 43.5747 29.3984 42.4998 33.7749C41.5791 37.5227 41.4486 42.1947 42.112 47.6609C42.3742 49.8227 42.7578 52.0725 43.2522 54.3889C39.861 55.1036 36.7181 55.9743 33.901 56.992C21.5759 61.4443 18.7305 67.3128 18.5138 71.452C18.3067 75.4059 20.3307 81.2903 31.1482 86.8689C32.5575 87.5958 34.2892 87.0421 35.016 85.633C35.7427 84.2236 35.1894 82.492 33.78 81.7654C27.5572 78.5561 24.083 74.9067 24.2482 71.7523C24.4809 67.3079 31.9305 62.6038 44.62 59.9532C45.7954 64.1985 47.3052 68.6075 49.1156 73.0782C44.5547 81.6396 41.2269 90.0774 39.5014 97.5831C38.2682 102.946 37.9077 107.603 38.4301 111.423C39.0401 115.885 40.8248 119.106 43.734 120.997C45.2174 121.961 47.2166 122.715 49.8427 122.715C53.6506 122.715 58.7757 121.129 65.5509 116.297C66.8418 115.376 67.1421 113.583 66.2212 112.292C65.3007 111.001 63.5076 110.701 62.2166 111.622C55.538 116.385 49.7985 118.09 46.8633 116.183C43.733 114.148 43.0729 107.676 45.0976 98.8695C46.4401 93.0303 48.8357 86.5578 52.0845 79.8871C52.7898 81.3971 53.526 82.9081 54.2937 84.4162C60.8323 97.2604 68.8368 108.435 76.8326 115.883C80.8592 119.633 84.7105 122.274 88.2795 123.731C90.4447 124.615 92.478 125.058 94.3657 125.058C96.1128 125.057 97.7358 124.679 99.2217 123.921C102.203 122.4 104.276 119.533 105.384 115.398C106.332 111.856 106.545 107.439 106.017 102.268C104.979 92.1 101.137 79.6992 95.1987 67.3494C94.5117 65.9202 92.7959 65.3191 91.3669 66.0059C89.9379 66.6931 89.3365 68.4086 90.0236 69.8377C95.681 81.6035 99.3325 93.3279 100.305 102.851C101.16 111.226 99.7796 117.19 96.613 118.805C93.2877 120.501 87.3565 117.838 80.7463 111.681C73.2296 104.68 65.6525 94.0717 59.4108 81.8111C57.9838 79.008 56.6692 76.1991 55.4731 73.4113C56.9577 70.7568 58.563 68.0934 60.2801 65.447C62.0309 62.7487 63.8034 60.2059 65.5806 57.8206C66.052 57.8141 66.5259 57.8093 67.0039 57.8078C69.4696 57.7999 72.1123 57.8686 74.8688 58.0131C88.5992 58.7334 101.36 61.3444 110.801 65.3649C119.106 68.9015 123.947 73.2407 123.751 76.9724C123.585 80.1407 119.736 83.4157 113.189 85.9574C111.711 86.5314 110.978 88.1949 111.552 89.673C111.993 90.8098 113.079 91.5057 114.229 91.5057C114.575 91.5057 114.926 91.4429 115.267 91.3103C126.643 86.8936 129.278 81.2388 129.486 77.2725C129.667 73.8061 128.113 70.4684 124.866 67.3515Z" fill="#0ACF83"/>
<path d="M68.0742 75.131C68.0742 78.5987 70.8829 81.4099 74.3476 81.4099C77.8124 81.4099 80.6211 78.5987 80.6211 75.131C80.6211 71.6632 77.8124 68.8521 74.3476 68.8521C70.8829 68.8521 68.0742 71.6632 68.0742 75.131Z" fill="#0ACF83"/>
</svg>
