<svg width="118" height="118" viewBox="0 0 118 118" fill="none" xmlns="http://www.w3.org/2000/svg">
<path d="M20.8958 9.51098e-06L97.1042 9.51098e-06C99.849 -0.00264382 102.567 0.54989 105.104 1.62599C107.64 2.70209 109.945 4.28063 111.886 6.27127C113.826 8.26191 115.365 10.6256 116.415 13.227C117.464 15.8284 118.003 18.6164 118 21.4316V96.5684C118.003 99.3836 117.464 102.172 116.415 104.773C115.365 107.374 113.826 109.738 111.886 111.729C109.945 113.719 107.64 115.298 105.104 116.374C102.567 117.45 99.849 118.003 97.1042 118H20.8958C18.151 118.003 15.4327 117.45 12.8963 116.374C10.3599 115.298 8.05536 113.719 6.11449 111.729C4.17361 109.738 2.63454 107.374 1.58534 104.773C0.536143 102.172 -0.00257773 99.3836 9.27321e-06 96.5684L9.27321e-06 21.4316C-0.00257773 18.6164 0.536143 15.8284 1.58534 13.227C2.63454 10.6256 4.17361 8.26191 6.11449 6.27127C8.05536 4.28063 10.3599 2.70209 12.8963 1.62599C15.4327 0.54989 18.151 -0.00264382 20.8958 9.51098e-06V9.51098e-06Z" fill="#000B1D"/>
<path d="M30.1139 82.3536C29.6344 82.7633 29.0507 83.032 28.4276 83.1298C27.8046 83.2277 27.1666 83.1508 26.5846 82.9077L20.3871 80.3077C19.7689 80.0498 19.2404 79.6156 18.8674 79.0592C18.4945 78.5028 18.2937 77.8489 18.29 77.1791L18.29 40.8124C18.2937 40.1426 18.4945 39.4887 18.8674 38.9323C19.2404 38.376 19.7689 37.9417 20.3871 37.6839L26.5846 35.1264C27.1666 34.8834 27.8046 34.8065 28.4276 34.9043C29.0507 35.0021 29.6344 35.2708 30.1139 35.6805L31.5034 36.8314C31.2216 36.6288 30.8894 36.508 30.5433 36.4823C30.1972 36.4566 29.8507 36.527 29.5421 36.6857C29.2335 36.8444 28.9747 37.0853 28.7943 37.3818C28.6139 37.6782 28.5189 38.0188 28.5198 38.3658L28.5198 79.6257C28.5189 79.9727 28.6139 80.3133 28.7943 80.6097C28.9747 80.9062 29.2335 81.1471 29.5421 81.3058C29.8507 81.4645 30.1972 81.5349 30.5433 81.5092C30.8894 81.4835 31.2216 81.3627 31.5034 81.1601L30.1139 82.3536Z" fill="#52218A"/>
<path d="M20.3881 80.3074C19.7699 80.0495 19.2414 79.6153 18.8684 79.0589C18.4955 78.5025 18.2946 77.8486 18.291 77.1788V76.8975C18.2952 77.2911 18.4173 77.6744 18.6414 77.9979C18.8656 78.3215 19.1816 78.5704 19.5486 78.7127C19.9156 78.8549 20.3168 78.8839 20.7005 78.7958C21.0841 78.7078 21.4326 78.5068 21.7009 78.2188L74.5544 19.7816C75.3029 19.0368 76.2636 18.542 77.3045 18.3649C78.3455 18.1879 79.4157 18.3373 80.3683 18.7927L97.2303 26.9083C98.0988 27.3259 98.8317 27.9804 99.3445 28.7963C99.8573 29.6123 100.129 30.5565 100.129 31.5202V31.7163C100.128 31.1049 99.9542 30.5062 99.627 29.9898C99.2998 29.4734 98.8327 29.0604 98.2801 28.7988C97.7275 28.5372 97.1121 28.4378 96.5052 28.5121C95.8984 28.5864 95.3251 28.8314 94.8519 29.2185L31.5044 81.1599L30.1149 82.3534C29.6354 82.7631 29.0517 83.0318 28.4286 83.1296C27.8056 83.2274 27.1676 83.1505 26.5856 82.9075L20.3881 80.3074Z" fill="#6C33AF"/>
<path d="M20.3871 37.684C19.7689 37.9418 19.2404 38.376 18.8674 38.9324C18.4945 39.4888 18.2937 40.1427 18.29 40.8125V41.0939C18.2942 40.7003 18.4163 40.317 18.6405 39.9934C18.8646 39.6699 19.1806 39.4209 19.5476 39.2787C19.9146 39.1365 20.3159 39.1075 20.6995 39.1955C21.0832 39.2836 21.4316 39.4845 21.6999 39.7725L74.5535 98.2098C75.302 98.9545 76.2626 99.4494 77.3035 99.6264C78.3445 99.8035 79.4147 99.6541 80.3674 99.1986L97.2293 91.0831C98.0979 90.6654 98.8307 90.011 99.3435 89.195C99.8563 88.3791 100.128 87.4349 100.128 86.4712V86.2751C100.127 86.8865 99.9532 87.4851 99.626 88.0016C99.2988 88.518 98.8317 88.931 98.2792 89.1926C97.7266 89.4541 97.1111 89.5535 96.5042 89.4792C95.8974 89.4049 95.3241 89.16 94.8509 88.7728L31.5034 36.8315L30.1139 35.638C29.6301 35.2353 29.0444 34.9744 28.4215 34.8841C27.7985 34.7939 27.1628 34.8778 26.5846 35.1265L20.3871 37.684Z" fill="#854CC7"/>
<path d="M80.3676 99.1988C79.415 99.6542 78.3447 99.8036 77.3038 99.6266C76.2628 99.4495 75.3022 98.9547 74.5537 98.2099C74.9738 98.627 75.5079 98.9105 76.0888 99.0247C76.6696 99.139 77.2713 99.0789 77.818 98.8519C78.3648 98.625 78.8323 98.2415 79.1615 97.7495C79.4908 97.2576 79.6672 96.6792 79.6686 96.0872L79.6686 21.9218C79.6706 21.3284 79.4966 20.7477 79.1686 20.2531C78.8406 19.7585 78.3734 19.3723 77.8259 19.1433C77.2785 18.9143 76.6754 18.8527 76.0929 18.9664C75.5105 19.0801 74.9748 19.364 74.5537 19.7821C75.3022 19.0373 76.2628 18.5424 77.3038 18.3654C78.3447 18.1883 79.415 18.3378 80.3676 18.7932L97.2296 26.9003C98.0981 27.3179 98.831 27.9723 99.3438 28.7883C99.8566 29.6042 100.128 30.5485 100.128 31.5122L100.128 86.4798C100.128 87.4435 99.8566 88.3877 99.3438 89.2037C98.831 90.0196 98.0981 90.6741 97.2296 91.0917L80.3676 99.1988Z" fill="#B179F1"/>
<g opacity="0.25">
<path fill-rule="evenodd" clip-rule="evenodd" d="M77.0171 99.5737C78.1442 99.8308 79.3251 99.6986 80.3674 99.1986L97.2293 91.0915C98.0979 90.6739 98.8307 90.0195 99.3435 89.2035C99.8563 88.3876 100.128 87.4433 100.128 86.4796L100.128 31.512C100.128 30.5483 99.8563 29.6041 99.3435 28.7881C98.8307 27.9722 98.0979 27.3177 97.2293 26.9001L80.3674 18.793C79.1743 18.2195 77.8053 18.1309 76.5483 18.5458C75.7965 18.7977 75.1136 19.2208 74.5535 19.7819L47.3765 49.8402L31.5034 36.8314L30.1139 35.638C29.696 35.2806 29.1979 35.0297 28.662 34.9065C28.1261 34.7833 27.5684 34.7915 27.0364 34.9304C26.8807 34.9648 26.7291 35.0163 26.5846 35.0839L20.3871 37.6839C19.8071 37.9234 19.3043 38.3184 18.9343 38.8252C18.5643 39.3321 18.3414 39.9313 18.29 40.5568C18.29 40.642 18.29 40.7272 18.29 40.8125L18.29 77.1791C18.29 77.2644 18.29 77.3496 18.29 77.4349C18.3414 78.0603 18.5643 78.6595 18.9343 79.1664C19.3043 79.6733 19.8071 80.0682 20.3871 80.3077L26.5846 82.8651C26.7291 82.9327 26.8807 82.9842 27.0364 83.0186C27.5684 83.1575 28.1261 83.1657 28.662 83.0425C29.1979 82.9193 29.696 82.6683 30.1139 82.311L31.5034 81.1602L47.3765 68.1514L74.5535 98.2097C75.2309 98.8859 76.0845 99.3585 77.0171 99.5737ZM79.6683 41.6735L58.5354 58.9958L79.6683 76.3181V41.6735ZM28.5198 47.2913L39.099 58.9958L28.5198 70.7003V47.2913Z" fill="url(#paint0_linear_280_1643)"/>
</g>
<defs>
<linearGradient id="paint0_linear_280_1643" x1="59.2089" y1="18.2901" x2="59.2089" y2="99.7015" gradientUnits="userSpaceOnUse">
<stop stop-color="white"/>
<stop offset="1" stop-color="white" stop-opacity="0"/>
</linearGradient>
</defs>
</svg>
