<svg width="231" height="231" viewBox="0 0 231 231" fill="none" xmlns="http://www.w3.org/2000/svg">
<path d="M40.9063 1.8619e-05H190.094C195.467 -0.00517562 200.789 1.07648 205.754 3.18308C210.719 5.28969 215.231 8.37988 219.03 12.2768C222.83 16.1737 225.843 20.8009 227.896 25.8935C229.95 30.986 231.005 36.4441 231 41.9551V189.045C231.005 194.556 229.95 200.014 227.896 205.107C225.843 210.199 222.83 214.826 219.03 218.723C215.231 222.62 210.719 225.71 205.754 227.817C200.789 229.924 195.467 231.005 190.094 231H40.9063C35.533 231.005 30.2114 229.924 25.2461 227.817C20.2809 225.71 15.7694 222.62 11.9699 218.723C8.17038 214.826 5.15744 210.199 3.10351 205.107C1.04957 200.014 -0.00504623 194.556 1.81535e-05 189.045V41.9551C-0.00504623 36.4441 1.04957 30.986 3.10351 25.8935C5.15744 20.8009 8.17038 16.1737 11.9699 12.2768C15.7694 8.37988 20.2809 5.28969 25.2461 3.18308C30.2114 1.07648 35.533 -0.00517562 40.9063 1.8619e-05V1.8619e-05Z" fill="#000B1D"/>
<path d="M189.938 52.6884L156.926 36.7939C153.105 34.9542 148.539 35.7302 145.54 38.729L37.4719 137.262C34.5651 139.912 34.5684 144.488 37.4791 147.134L46.3064 155.159C48.6859 157.322 52.2696 157.482 54.8316 155.538L184.971 56.8119C189.337 53.4998 195.607 56.6137 195.607 62.0939V61.7107C195.607 57.8639 193.404 54.3572 189.938 52.6884Z" fill="#0065A9"/>
<g filter="url(#filter0_d_280_1707)">
<path d="M189.938 178.31L156.926 194.205C153.105 196.045 148.539 195.269 145.54 192.27L37.4719 93.7372C34.5651 91.0869 34.5684 86.5105 37.4791 83.8645L46.3064 75.8396C48.6859 73.6764 52.2696 73.5171 54.8316 75.4607L184.971 174.187C189.337 177.499 195.607 174.385 195.607 168.905V169.288C195.607 173.135 193.404 176.641 189.938 178.31Z" fill="#007ACC"/>
</g>
<g filter="url(#filter1_d_280_1707)">
<path d="M156.928 194.208C153.106 196.047 148.539 195.269 145.54 192.27C149.235 195.965 155.554 193.348 155.554 188.122V42.8772C155.554 37.6514 149.235 35.0343 145.54 38.7295C148.539 35.7304 153.106 34.9533 156.928 36.7914L189.934 52.6641C193.402 54.332 195.608 57.8399 195.608 61.6883V169.312C195.608 173.16 193.402 176.668 189.934 178.336L156.928 194.208Z" fill="#1F9CF0"/>
</g>
<g style="mix-blend-mode:overlay" opacity="0.25">
<path style="mix-blend-mode:overlay" fill-rule="evenodd" clip-rule="evenodd" d="M148.907 194.514C151.431 195.497 154.308 195.434 156.855 194.208L189.841 178.336C193.307 176.668 195.511 173.16 195.511 169.312V61.6884C195.511 57.8398 193.307 54.3319 189.841 52.664L156.855 36.7914C153.512 35.183 149.6 35.577 146.667 37.7098C146.248 38.0144 145.848 38.3546 145.474 38.7295L82.3265 96.3401L54.8207 75.461C52.2603 73.5173 48.6788 73.6767 46.3007 75.8398L37.4787 83.8647C34.5699 86.5108 34.5665 91.0871 37.4715 93.7374L61.3254 115.5L37.4715 137.262C34.5665 139.912 34.5699 144.489 37.4787 147.135L46.3007 155.16C48.6788 157.323 52.2603 157.482 54.8207 155.538L82.3265 134.659L145.474 192.27C146.473 193.269 147.646 194.022 148.907 194.514ZM155.481 79.1289L107.567 115.5L155.481 151.871V79.1289Z" fill="url(#paint0_linear_280_1707)"/>
</g>
<defs>
<filter id="filter0_d_280_1707" x="26.9606" y="65.7702" width="176.98" height="137.757" filterUnits="userSpaceOnUse" color-interpolation-filters="sRGB">
<feFlood flood-opacity="0" result="BackgroundImageFix"/>
<feColorMatrix in="SourceAlpha" type="matrix" values="0 0 0 0 0 0 0 0 0 0 0 0 0 0 0 0 0 0 127 0" result="hardAlpha"/>
<feOffset/>
<feGaussianBlur stdDeviation="4.16667"/>
<feColorMatrix type="matrix" values="0 0 0 0 0 0 0 0 0 0 0 0 0 0 0 0 0 0 0.25 0"/>
<feBlend mode="overlay" in2="BackgroundImageFix" result="effect1_dropShadow_280_1707"/>
<feBlend mode="normal" in="SourceGraphic" in2="effect1_dropShadow_280_1707" result="shape"/>
</filter>
<filter id="filter1_d_280_1707" x="137.207" y="27.4713" width="66.7341" height="176.057" filterUnits="userSpaceOnUse" color-interpolation-filters="sRGB">
<feFlood flood-opacity="0" result="BackgroundImageFix"/>
<feColorMatrix in="SourceAlpha" type="matrix" values="0 0 0 0 0 0 0 0 0 0 0 0 0 0 0 0 0 0 127 0" result="hardAlpha"/>
<feOffset/>
<feGaussianBlur stdDeviation="4.16667"/>
<feColorMatrix type="matrix" values="0 0 0 0 0 0 0 0 0 0 0 0 0 0 0 0 0 0 0.25 0"/>
<feBlend mode="overlay" in2="BackgroundImageFix" result="effect1_dropShadow_280_1707"/>
<feBlend mode="normal" in="SourceGraphic" in2="effect1_dropShadow_280_1707" result="shape"/>
</filter>
<linearGradient id="paint0_linear_280_1707" x1="115.403" y1="35.8047" x2="115.403" y2="195.195" gradientUnits="userSpaceOnUse">
<stop stop-color="white"/>
<stop offset="1" stop-color="white" stop-opacity="0"/>
</linearGradient>
</defs>
</svg>
